<?xml version="1.0" encoding="utf-8" standalone="no"?>
<!DOCTYPE svg PUBLIC "-//W3C//DTD SVG 1.1//EN"
  "http://www.w3.org/Graphics/SVG/1.1/DTD/svg11.dtd">
<svg xmlns:xlink="http://www.w3.org/1999/xlink" width="444.765625pt" height="447.954375pt" viewBox="0 0 444.765625 447.954375" xmlns="http://www.w3.org/2000/svg" version="1.1">
 <metadata>
  <rdf:RDF xmlns:dc="http://purl.org/dc/elements/1.1/" xmlns:cc="http://creativecommons.org/ns#" xmlns:rdf="http://www.w3.org/1999/02/22-rdf-syntax-ns#">
   <cc:Work>
    <dc:type rdf:resource="http://purl.org/dc/dcmitype/StillImage"/>
    <dc:date>2024-08-14T08:21:25.514165</dc:date>
    <dc:format>image/svg+xml</dc:format>
    <dc:creator>
     <cc:Agent>
      <dc:title>Matplotlib v3.9.2, https://matplotlib.org/</dc:title>
     </cc:Agent>
    </dc:creator>
   </cc:Work>
  </rdf:RDF>
 </metadata>
 <defs>
  <style type="text/css">*{stroke-linejoin: round; stroke-linecap: butt}</style>
 </defs>
 <g id="figure_1">
  <g id="patch_1">
   <path d="M 0 447.954375 
L 444.765625 447.954375 
L 444.765625 0 
L 0 0 
z
" style="fill: #ffffff"/>
  </g>
  <g id="axes_1">
   <g id="patch_2">
    <path d="M 46.965625 410.398125 
L 437.565625 410.398125 
L 437.565625 22.318125 
L 46.965625 22.318125 
z
" style="fill: #ffffff"/>
   </g>
   <g id="matplotlib.axis_1">
    <g id="xtick_1">
     <g id="line2d_1">
      <path d="M 64.72017 410.398125 
L 64.72017 22.318125 
" clip-path="url(#p9e7352af25)" style="fill: none; stroke: #b0b0b0; stroke-width: 0.8; stroke-linecap: square"/>
     </g>
     <g id="line2d_2">
      <defs>
       <path id="me691c031c6" d="M 0 0 
L 0 3.5 
" style="stroke: #000000; stroke-width: 0.8"/>
      </defs>
      <g>
       <use xlink:href="#me691c031c6" x="64.72017" y="410.398125" style="stroke: #000000; stroke-width: 0.8"/>
      </g>
     </g>
     <g id="text_1">
      <!-- 0 -->
      <g transform="translate(61.53892 424.996562) scale(0.1 -0.1)">
       <defs>
        <path id="DejaVuSans-30" d="M 2034 4250 
Q 1547 4250 1301 3770 
Q 1056 3291 1056 2328 
Q 1056 1369 1301 889 
Q 1547 409 2034 409 
Q 2525 409 2770 889 
Q 3016 1369 3016 2328 
Q 3016 3291 2770 3770 
Q 2525 4250 2034 4250 
z
M 2034 4750 
Q 2819 4750 3233 4129 
Q 3647 3509 3647 2328 
Q 3647 1150 3233 529 
Q 2819 -91 2034 -91 
Q 1250 -91 836 529 
Q 422 1150 422 2328 
Q 422 3509 836 4129 
Q 1250 4750 2034 4750 
z
" transform="scale(0.015625)"/>
       </defs>
       <use xlink:href="#DejaVuSans-30"/>
      </g>
     </g>
    </g>
    <g id="xtick_2">
     <g id="line2d_3">
      <path d="M 109.329581 410.398125 
L 109.329581 22.318125 
" clip-path="url(#p9e7352af25)" style="fill: none; stroke: #b0b0b0; stroke-width: 0.8; stroke-linecap: square"/>
     </g>
     <g id="line2d_4">
      <g>
       <use xlink:href="#me691c031c6" x="109.329581" y="410.398125" style="stroke: #000000; stroke-width: 0.8"/>
      </g>
     </g>
     <g id="text_2">
      <!-- 25 -->
      <g transform="translate(102.967081 424.996562) scale(0.1 -0.1)">
       <defs>
        <path id="DejaVuSans-32" d="M 1228 531 
L 3431 531 
L 3431 0 
L 469 0 
L 469 531 
Q 828 903 1448 1529 
Q 2069 2156 2228 2338 
Q 2531 2678 2651 2914 
Q 2772 3150 2772 3378 
Q 2772 3750 2511 3984 
Q 2250 4219 1831 4219 
Q 1534 4219 1204 4116 
Q 875 4013 500 3803 
L 500 4441 
Q 881 4594 1212 4672 
Q 1544 4750 1819 4750 
Q 2544 4750 2975 4387 
Q 3406 4025 3406 3419 
Q 3406 3131 3298 2873 
Q 3191 2616 2906 2266 
Q 2828 2175 2409 1742 
Q 1991 1309 1228 531 
z
" transform="scale(0.015625)"/>
        <path id="DejaVuSans-35" d="M 691 4666 
L 3169 4666 
L 3169 4134 
L 1269 4134 
L 1269 2991 
Q 1406 3038 1543 3061 
Q 1681 3084 1819 3084 
Q 2600 3084 3056 2656 
Q 3513 2228 3513 1497 
Q 3513 744 3044 326 
Q 2575 -91 1722 -91 
Q 1428 -91 1123 -41 
Q 819 9 494 109 
L 494 744 
Q 775 591 1075 516 
Q 1375 441 1709 441 
Q 2250 441 2565 725 
Q 2881 1009 2881 1497 
Q 2881 1984 2565 2268 
Q 2250 2553 1709 2553 
Q 1456 2553 1204 2497 
Q 953 2441 691 2322 
L 691 4666 
z
" transform="scale(0.015625)"/>
       </defs>
       <use xlink:href="#DejaVuSans-32"/>
       <use xlink:href="#DejaVuSans-35" x="63.623047"/>
      </g>
     </g>
    </g>
    <g id="xtick_3">
     <g id="line2d_5">
      <path d="M 153.938992 410.398125 
L 153.938992 22.318125 
" clip-path="url(#p9e7352af25)" style="fill: none; stroke: #b0b0b0; stroke-width: 0.8; stroke-linecap: square"/>
     </g>
     <g id="line2d_6">
      <g>
       <use xlink:href="#me691c031c6" x="153.938992" y="410.398125" style="stroke: #000000; stroke-width: 0.8"/>
      </g>
     </g>
     <g id="text_3">
      <!-- 50 -->
      <g transform="translate(147.576492 424.996562) scale(0.1 -0.1)">
       <use xlink:href="#DejaVuSans-35"/>
       <use xlink:href="#DejaVuSans-30" x="63.623047"/>
      </g>
     </g>
    </g>
    <g id="xtick_4">
     <g id="line2d_7">
      <path d="M 198.548403 410.398125 
L 198.548403 22.318125 
" clip-path="url(#p9e7352af25)" style="fill: none; stroke: #b0b0b0; stroke-width: 0.8; stroke-linecap: square"/>
     </g>
     <g id="line2d_8">
      <g>
       <use xlink:href="#me691c031c6" x="198.548403" y="410.398125" style="stroke: #000000; stroke-width: 0.8"/>
      </g>
     </g>
     <g id="text_4">
      <!-- 75 -->
      <g transform="translate(192.185903 424.996562) scale(0.1 -0.1)">
       <defs>
        <path id="DejaVuSans-37" d="M 525 4666 
L 3525 4666 
L 3525 4397 
L 1831 0 
L 1172 0 
L 2766 4134 
L 525 4134 
L 525 4666 
z
" transform="scale(0.015625)"/>
       </defs>
       <use xlink:href="#DejaVuSans-37"/>
       <use xlink:href="#DejaVuSans-35" x="63.623047"/>
      </g>
     </g>
    </g>
    <g id="xtick_5">
     <g id="line2d_9">
      <path d="M 243.157813 410.398125 
L 243.157813 22.318125 
" clip-path="url(#p9e7352af25)" style="fill: none; stroke: #b0b0b0; stroke-width: 0.8; stroke-linecap: square"/>
     </g>
     <g id="line2d_10">
      <g>
       <use xlink:href="#me691c031c6" x="243.157813" y="410.398125" style="stroke: #000000; stroke-width: 0.8"/>
      </g>
     </g>
     <g id="text_5">
      <!-- 100 -->
      <g transform="translate(233.614063 424.996562) scale(0.1 -0.1)">
       <defs>
        <path id="DejaVuSans-31" d="M 794 531 
L 1825 531 
L 1825 4091 
L 703 3866 
L 703 4441 
L 1819 4666 
L 2450 4666 
L 2450 531 
L 3481 531 
L 3481 0 
L 794 0 
L 794 531 
z
" transform="scale(0.015625)"/>
       </defs>
       <use xlink:href="#DejaVuSans-31"/>
       <use xlink:href="#DejaVuSans-30" x="63.623047"/>
       <use xlink:href="#DejaVuSans-30" x="127.246094"/>
      </g>
     </g>
    </g>
    <g id="xtick_6">
     <g id="line2d_11">
      <path d="M 287.767224 410.398125 
L 287.767224 22.318125 
" clip-path="url(#p9e7352af25)" style="fill: none; stroke: #b0b0b0; stroke-width: 0.8; stroke-linecap: square"/>
     </g>
     <g id="line2d_12">
      <g>
       <use xlink:href="#me691c031c6" x="287.767224" y="410.398125" style="stroke: #000000; stroke-width: 0.8"/>
      </g>
     </g>
     <g id="text_6">
      <!-- 125 -->
      <g transform="translate(278.223474 424.996562) scale(0.1 -0.1)">
       <use xlink:href="#DejaVuSans-31"/>
       <use xlink:href="#DejaVuSans-32" x="63.623047"/>
       <use xlink:href="#DejaVuSans-35" x="127.246094"/>
      </g>
     </g>
    </g>
    <g id="xtick_7">
     <g id="line2d_13">
      <path d="M 332.376635 410.398125 
L 332.376635 22.318125 
" clip-path="url(#p9e7352af25)" style="fill: none; stroke: #b0b0b0; stroke-width: 0.8; stroke-linecap: square"/>
     </g>
     <g id="line2d_14">
      <g>
       <use xlink:href="#me691c031c6" x="332.376635" y="410.398125" style="stroke: #000000; stroke-width: 0.8"/>
      </g>
     </g>
     <g id="text_7">
      <!-- 150 -->
      <g transform="translate(322.832885 424.996562) scale(0.1 -0.1)">
       <use xlink:href="#DejaVuSans-31"/>
       <use xlink:href="#DejaVuSans-35" x="63.623047"/>
       <use xlink:href="#DejaVuSans-30" x="127.246094"/>
      </g>
     </g>
    </g>
    <g id="xtick_8">
     <g id="line2d_15">
      <path d="M 376.986045 410.398125 
L 376.986045 22.318125 
" clip-path="url(#p9e7352af25)" style="fill: none; stroke: #b0b0b0; stroke-width: 0.8; stroke-linecap: square"/>
     </g>
     <g id="line2d_16">
      <g>
       <use xlink:href="#me691c031c6" x="376.986045" y="410.398125" style="stroke: #000000; stroke-width: 0.8"/>
      </g>
     </g>
     <g id="text_8">
      <!-- 175 -->
      <g transform="translate(367.442295 424.996562) scale(0.1 -0.1)">
       <use xlink:href="#DejaVuSans-31"/>
       <use xlink:href="#DejaVuSans-37" x="63.623047"/>
       <use xlink:href="#DejaVuSans-35" x="127.246094"/>
      </g>
     </g>
    </g>
    <g id="xtick_9">
     <g id="line2d_17">
      <path d="M 421.595456 410.398125 
L 421.595456 22.318125 
" clip-path="url(#p9e7352af25)" style="fill: none; stroke: #b0b0b0; stroke-width: 0.8; stroke-linecap: square"/>
     </g>
     <g id="line2d_18">
      <g>
       <use xlink:href="#me691c031c6" x="421.595456" y="410.398125" style="stroke: #000000; stroke-width: 0.8"/>
      </g>
     </g>
     <g id="text_9">
      <!-- 200 -->
      <g transform="translate(412.051706 424.996562) scale(0.1 -0.1)">
       <use xlink:href="#DejaVuSans-32"/>
       <use xlink:href="#DejaVuSans-30" x="63.623047"/>
       <use xlink:href="#DejaVuSans-30" x="127.246094"/>
      </g>
     </g>
    </g>
    <g id="text_10">
     <!-- Area (sq meters) -->
     <g transform="translate(200.259375 438.674687) scale(0.1 -0.1)">
      <defs>
       <path id="DejaVuSans-41" d="M 2188 4044 
L 1331 1722 
L 3047 1722 
L 2188 4044 
z
M 1831 4666 
L 2547 4666 
L 4325 0 
L 3669 0 
L 3244 1197 
L 1141 1197 
L 716 0 
L 50 0 
L 1831 4666 
z
" transform="scale(0.015625)"/>
       <path id="DejaVuSans-72" d="M 2631 2963 
Q 2534 3019 2420 3045 
Q 2306 3072 2169 3072 
Q 1681 3072 1420 2755 
Q 1159 2438 1159 1844 
L 1159 0 
L 581 0 
L 581 3500 
L 1159 3500 
L 1159 2956 
Q 1341 3275 1631 3429 
Q 1922 3584 2338 3584 
Q 2397 3584 2469 3576 
Q 2541 3569 2628 3553 
L 2631 2963 
z
" transform="scale(0.015625)"/>
       <path id="DejaVuSans-65" d="M 3597 1894 
L 3597 1613 
L 953 1613 
Q 991 1019 1311 708 
Q 1631 397 2203 397 
Q 2534 397 2845 478 
Q 3156 559 3463 722 
L 3463 178 
Q 3153 47 2828 -22 
Q 2503 -91 2169 -91 
Q 1331 -91 842 396 
Q 353 884 353 1716 
Q 353 2575 817 3079 
Q 1281 3584 2069 3584 
Q 2775 3584 3186 3129 
Q 3597 2675 3597 1894 
z
M 3022 2063 
Q 3016 2534 2758 2815 
Q 2500 3097 2075 3097 
Q 1594 3097 1305 2825 
Q 1016 2553 972 2059 
L 3022 2063 
z
" transform="scale(0.015625)"/>
       <path id="DejaVuSans-61" d="M 2194 1759 
Q 1497 1759 1228 1600 
Q 959 1441 959 1056 
Q 959 750 1161 570 
Q 1363 391 1709 391 
Q 2188 391 2477 730 
Q 2766 1069 2766 1631 
L 2766 1759 
L 2194 1759 
z
M 3341 1997 
L 3341 0 
L 2766 0 
L 2766 531 
Q 2569 213 2275 61 
Q 1981 -91 1556 -91 
Q 1019 -91 701 211 
Q 384 513 384 1019 
Q 384 1609 779 1909 
Q 1175 2209 1959 2209 
L 2766 2209 
L 2766 2266 
Q 2766 2663 2505 2880 
Q 2244 3097 1772 3097 
Q 1472 3097 1187 3025 
Q 903 2953 641 2809 
L 641 3341 
Q 956 3463 1253 3523 
Q 1550 3584 1831 3584 
Q 2591 3584 2966 3190 
Q 3341 2797 3341 1997 
z
" transform="scale(0.015625)"/>
       <path id="DejaVuSans-20" transform="scale(0.015625)"/>
       <path id="DejaVuSans-28" d="M 1984 4856 
Q 1566 4138 1362 3434 
Q 1159 2731 1159 2009 
Q 1159 1288 1364 580 
Q 1569 -128 1984 -844 
L 1484 -844 
Q 1016 -109 783 600 
Q 550 1309 550 2009 
Q 550 2706 781 3412 
Q 1013 4119 1484 4856 
L 1984 4856 
z
" transform="scale(0.015625)"/>
       <path id="DejaVuSans-73" d="M 2834 3397 
L 2834 2853 
Q 2591 2978 2328 3040 
Q 2066 3103 1784 3103 
Q 1356 3103 1142 2972 
Q 928 2841 928 2578 
Q 928 2378 1081 2264 
Q 1234 2150 1697 2047 
L 1894 2003 
Q 2506 1872 2764 1633 
Q 3022 1394 3022 966 
Q 3022 478 2636 193 
Q 2250 -91 1575 -91 
Q 1294 -91 989 -36 
Q 684 19 347 128 
L 347 722 
Q 666 556 975 473 
Q 1284 391 1588 391 
Q 1994 391 2212 530 
Q 2431 669 2431 922 
Q 2431 1156 2273 1281 
Q 2116 1406 1581 1522 
L 1381 1569 
Q 847 1681 609 1914 
Q 372 2147 372 2553 
Q 372 3047 722 3315 
Q 1072 3584 1716 3584 
Q 2034 3584 2315 3537 
Q 2597 3491 2834 3397 
z
" transform="scale(0.015625)"/>
       <path id="DejaVuSans-71" d="M 947 1747 
Q 947 1113 1208 752 
Q 1469 391 1925 391 
Q 2381 391 2643 752 
Q 2906 1113 2906 1747 
Q 2906 2381 2643 2742 
Q 2381 3103 1925 3103 
Q 1469 3103 1208 2742 
Q 947 2381 947 1747 
z
M 2906 525 
Q 2725 213 2448 61 
Q 2172 -91 1784 -91 
Q 1150 -91 751 415 
Q 353 922 353 1747 
Q 353 2572 751 3078 
Q 1150 3584 1784 3584 
Q 2172 3584 2448 3432 
Q 2725 3281 2906 2969 
L 2906 3500 
L 3481 3500 
L 3481 -1331 
L 2906 -1331 
L 2906 525 
z
" transform="scale(0.015625)"/>
       <path id="DejaVuSans-6d" d="M 3328 2828 
Q 3544 3216 3844 3400 
Q 4144 3584 4550 3584 
Q 5097 3584 5394 3201 
Q 5691 2819 5691 2113 
L 5691 0 
L 5113 0 
L 5113 2094 
Q 5113 2597 4934 2840 
Q 4756 3084 4391 3084 
Q 3944 3084 3684 2787 
Q 3425 2491 3425 1978 
L 3425 0 
L 2847 0 
L 2847 2094 
Q 2847 2600 2669 2842 
Q 2491 3084 2119 3084 
Q 1678 3084 1418 2786 
Q 1159 2488 1159 1978 
L 1159 0 
L 581 0 
L 581 3500 
L 1159 3500 
L 1159 2956 
Q 1356 3278 1631 3431 
Q 1906 3584 2284 3584 
Q 2666 3584 2933 3390 
Q 3200 3197 3328 2828 
z
" transform="scale(0.015625)"/>
       <path id="DejaVuSans-74" d="M 1172 4494 
L 1172 3500 
L 2356 3500 
L 2356 3053 
L 1172 3053 
L 1172 1153 
Q 1172 725 1289 603 
Q 1406 481 1766 481 
L 2356 481 
L 2356 0 
L 1766 0 
Q 1100 0 847 248 
Q 594 497 594 1153 
L 594 3053 
L 172 3053 
L 172 3500 
L 594 3500 
L 594 4494 
L 1172 4494 
z
" transform="scale(0.015625)"/>
       <path id="DejaVuSans-29" d="M 513 4856 
L 1013 4856 
Q 1481 4119 1714 3412 
Q 1947 2706 1947 2009 
Q 1947 1309 1714 600 
Q 1481 -109 1013 -844 
L 513 -844 
Q 928 -128 1133 580 
Q 1338 1288 1338 2009 
Q 1338 2731 1133 3434 
Q 928 4138 513 4856 
z
" transform="scale(0.015625)"/>
      </defs>
      <use xlink:href="#DejaVuSans-41"/>
      <use xlink:href="#DejaVuSans-72" x="68.408203"/>
      <use xlink:href="#DejaVuSans-65" x="107.271484"/>
      <use xlink:href="#DejaVuSans-61" x="168.794922"/>
      <use xlink:href="#DejaVuSans-20" x="230.074219"/>
      <use xlink:href="#DejaVuSans-28" x="261.861328"/>
      <use xlink:href="#DejaVuSans-73" x="300.875"/>
      <use xlink:href="#DejaVuSans-71" x="352.974609"/>
      <use xlink:href="#DejaVuSans-20" x="416.451172"/>
      <use xlink:href="#DejaVuSans-6d" x="448.238281"/>
      <use xlink:href="#DejaVuSans-65" x="545.650391"/>
      <use xlink:href="#DejaVuSans-74" x="607.173828"/>
      <use xlink:href="#DejaVuSans-65" x="646.382812"/>
      <use xlink:href="#DejaVuSans-72" x="707.90625"/>
      <use xlink:href="#DejaVuSans-73" x="749.019531"/>
      <use xlink:href="#DejaVuSans-29" x="801.119141"/>
     </g>
    </g>
   </g>
   <g id="matplotlib.axis_2">
    <g id="ytick_1">
     <g id="line2d_19">
      <path d="M 46.965625 376.213945 
L 437.565625 376.213945 
" clip-path="url(#p9e7352af25)" style="fill: none; stroke: #b0b0b0; stroke-width: 0.8; stroke-linecap: square"/>
     </g>
     <g id="line2d_20">
      <defs>
       <path id="m774ad4c4fe" d="M 0 0 
L -3.5 0 
" style="stroke: #000000; stroke-width: 0.8"/>
      </defs>
      <g>
       <use xlink:href="#m774ad4c4fe" x="46.965625" y="376.213945" style="stroke: #000000; stroke-width: 0.8"/>
      </g>
     </g>
     <g id="text_11">
      <!-- 200 -->
      <g transform="translate(20.878125 380.013163) scale(0.1 -0.1)">
       <use xlink:href="#DejaVuSans-32"/>
       <use xlink:href="#DejaVuSans-30" x="63.623047"/>
       <use xlink:href="#DejaVuSans-30" x="127.246094"/>
      </g>
     </g>
    </g>
    <g id="ytick_2">
     <g id="line2d_21">
      <path d="M 46.965625 303.749027 
L 437.565625 303.749027 
" clip-path="url(#p9e7352af25)" style="fill: none; stroke: #b0b0b0; stroke-width: 0.8; stroke-linecap: square"/>
     </g>
     <g id="line2d_22">
      <g>
       <use xlink:href="#m774ad4c4fe" x="46.965625" y="303.749027" style="stroke: #000000; stroke-width: 0.8"/>
      </g>
     </g>
     <g id="text_12">
      <!-- 300 -->
      <g transform="translate(20.878125 307.548246) scale(0.1 -0.1)">
       <defs>
        <path id="DejaVuSans-33" d="M 2597 2516 
Q 3050 2419 3304 2112 
Q 3559 1806 3559 1356 
Q 3559 666 3084 287 
Q 2609 -91 1734 -91 
Q 1441 -91 1130 -33 
Q 819 25 488 141 
L 488 750 
Q 750 597 1062 519 
Q 1375 441 1716 441 
Q 2309 441 2620 675 
Q 2931 909 2931 1356 
Q 2931 1769 2642 2001 
Q 2353 2234 1838 2234 
L 1294 2234 
L 1294 2753 
L 1863 2753 
Q 2328 2753 2575 2939 
Q 2822 3125 2822 3475 
Q 2822 3834 2567 4026 
Q 2313 4219 1838 4219 
Q 1578 4219 1281 4162 
Q 984 4106 628 3988 
L 628 4550 
Q 988 4650 1302 4700 
Q 1616 4750 1894 4750 
Q 2613 4750 3031 4423 
Q 3450 4097 3450 3541 
Q 3450 3153 3228 2886 
Q 3006 2619 2597 2516 
z
" transform="scale(0.015625)"/>
       </defs>
       <use xlink:href="#DejaVuSans-33"/>
       <use xlink:href="#DejaVuSans-30" x="63.623047"/>
       <use xlink:href="#DejaVuSans-30" x="127.246094"/>
      </g>
     </g>
    </g>
    <g id="ytick_3">
     <g id="line2d_23">
      <path d="M 46.965625 231.28411 
L 437.565625 231.28411 
" clip-path="url(#p9e7352af25)" style="fill: none; stroke: #b0b0b0; stroke-width: 0.8; stroke-linecap: square"/>
     </g>
     <g id="line2d_24">
      <g>
       <use xlink:href="#m774ad4c4fe" x="46.965625" y="231.28411" style="stroke: #000000; stroke-width: 0.8"/>
      </g>
     </g>
     <g id="text_13">
      <!-- 400 -->
      <g transform="translate(20.878125 235.083329) scale(0.1 -0.1)">
       <defs>
        <path id="DejaVuSans-34" d="M 2419 4116 
L 825 1625 
L 2419 1625 
L 2419 4116 
z
M 2253 4666 
L 3047 4666 
L 3047 1625 
L 3713 1625 
L 3713 1100 
L 3047 1100 
L 3047 0 
L 2419 0 
L 2419 1100 
L 313 1100 
L 313 1709 
L 2253 4666 
z
" transform="scale(0.015625)"/>
       </defs>
       <use xlink:href="#DejaVuSans-34"/>
       <use xlink:href="#DejaVuSans-30" x="63.623047"/>
       <use xlink:href="#DejaVuSans-30" x="127.246094"/>
      </g>
     </g>
    </g>
    <g id="ytick_4">
     <g id="line2d_25">
      <path d="M 46.965625 158.819193 
L 437.565625 158.819193 
" clip-path="url(#p9e7352af25)" style="fill: none; stroke: #b0b0b0; stroke-width: 0.8; stroke-linecap: square"/>
     </g>
     <g id="line2d_26">
      <g>
       <use xlink:href="#m774ad4c4fe" x="46.965625" y="158.819193" style="stroke: #000000; stroke-width: 0.8"/>
      </g>
     </g>
     <g id="text_14">
      <!-- 500 -->
      <g transform="translate(20.878125 162.618411) scale(0.1 -0.1)">
       <use xlink:href="#DejaVuSans-35"/>
       <use xlink:href="#DejaVuSans-30" x="63.623047"/>
       <use xlink:href="#DejaVuSans-30" x="127.246094"/>
      </g>
     </g>
    </g>
    <g id="ytick_5">
     <g id="line2d_27">
      <path d="M 46.965625 86.354275 
L 437.565625 86.354275 
" clip-path="url(#p9e7352af25)" style="fill: none; stroke: #b0b0b0; stroke-width: 0.8; stroke-linecap: square"/>
     </g>
     <g id="line2d_28">
      <g>
       <use xlink:href="#m774ad4c4fe" x="46.965625" y="86.354275" style="stroke: #000000; stroke-width: 0.8"/>
      </g>
     </g>
     <g id="text_15">
      <!-- 600 -->
      <g transform="translate(20.878125 90.153494) scale(0.1 -0.1)">
       <defs>
        <path id="DejaVuSans-36" d="M 2113 2584 
Q 1688 2584 1439 2293 
Q 1191 2003 1191 1497 
Q 1191 994 1439 701 
Q 1688 409 2113 409 
Q 2538 409 2786 701 
Q 3034 994 3034 1497 
Q 3034 2003 2786 2293 
Q 2538 2584 2113 2584 
z
M 3366 4563 
L 3366 3988 
Q 3128 4100 2886 4159 
Q 2644 4219 2406 4219 
Q 1781 4219 1451 3797 
Q 1122 3375 1075 2522 
Q 1259 2794 1537 2939 
Q 1816 3084 2150 3084 
Q 2853 3084 3261 2657 
Q 3669 2231 3669 1497 
Q 3669 778 3244 343 
Q 2819 -91 2113 -91 
Q 1303 -91 875 529 
Q 447 1150 447 2328 
Q 447 3434 972 4092 
Q 1497 4750 2381 4750 
Q 2619 4750 2861 4703 
Q 3103 4656 3366 4563 
z
" transform="scale(0.015625)"/>
       </defs>
       <use xlink:href="#DejaVuSans-36"/>
       <use xlink:href="#DejaVuSans-30" x="63.623047"/>
       <use xlink:href="#DejaVuSans-30" x="127.246094"/>
      </g>
     </g>
    </g>
    <g id="text_16">
     <!-- Price (thousand dollars) -->
     <g transform="translate(14.798438 275.740156) rotate(-90) scale(0.1 -0.1)">
      <defs>
       <path id="DejaVuSans-50" d="M 1259 4147 
L 1259 2394 
L 2053 2394 
Q 2494 2394 2734 2622 
Q 2975 2850 2975 3272 
Q 2975 3691 2734 3919 
Q 2494 4147 2053 4147 
L 1259 4147 
z
M 628 4666 
L 2053 4666 
Q 2838 4666 3239 4311 
Q 3641 3956 3641 3272 
Q 3641 2581 3239 2228 
Q 2838 1875 2053 1875 
L 1259 1875 
L 1259 0 
L 628 0 
L 628 4666 
z
" transform="scale(0.015625)"/>
       <path id="DejaVuSans-69" d="M 603 3500 
L 1178 3500 
L 1178 0 
L 603 0 
L 603 3500 
z
M 603 4863 
L 1178 4863 
L 1178 4134 
L 603 4134 
L 603 4863 
z
" transform="scale(0.015625)"/>
       <path id="DejaVuSans-63" d="M 3122 3366 
L 3122 2828 
Q 2878 2963 2633 3030 
Q 2388 3097 2138 3097 
Q 1578 3097 1268 2742 
Q 959 2388 959 1747 
Q 959 1106 1268 751 
Q 1578 397 2138 397 
Q 2388 397 2633 464 
Q 2878 531 3122 666 
L 3122 134 
Q 2881 22 2623 -34 
Q 2366 -91 2075 -91 
Q 1284 -91 818 406 
Q 353 903 353 1747 
Q 353 2603 823 3093 
Q 1294 3584 2113 3584 
Q 2378 3584 2631 3529 
Q 2884 3475 3122 3366 
z
" transform="scale(0.015625)"/>
       <path id="DejaVuSans-68" d="M 3513 2113 
L 3513 0 
L 2938 0 
L 2938 2094 
Q 2938 2591 2744 2837 
Q 2550 3084 2163 3084 
Q 1697 3084 1428 2787 
Q 1159 2491 1159 1978 
L 1159 0 
L 581 0 
L 581 4863 
L 1159 4863 
L 1159 2956 
Q 1366 3272 1645 3428 
Q 1925 3584 2291 3584 
Q 2894 3584 3203 3211 
Q 3513 2838 3513 2113 
z
" transform="scale(0.015625)"/>
       <path id="DejaVuSans-6f" d="M 1959 3097 
Q 1497 3097 1228 2736 
Q 959 2375 959 1747 
Q 959 1119 1226 758 
Q 1494 397 1959 397 
Q 2419 397 2687 759 
Q 2956 1122 2956 1747 
Q 2956 2369 2687 2733 
Q 2419 3097 1959 3097 
z
M 1959 3584 
Q 2709 3584 3137 3096 
Q 3566 2609 3566 1747 
Q 3566 888 3137 398 
Q 2709 -91 1959 -91 
Q 1206 -91 779 398 
Q 353 888 353 1747 
Q 353 2609 779 3096 
Q 1206 3584 1959 3584 
z
" transform="scale(0.015625)"/>
       <path id="DejaVuSans-75" d="M 544 1381 
L 544 3500 
L 1119 3500 
L 1119 1403 
Q 1119 906 1312 657 
Q 1506 409 1894 409 
Q 2359 409 2629 706 
Q 2900 1003 2900 1516 
L 2900 3500 
L 3475 3500 
L 3475 0 
L 2900 0 
L 2900 538 
Q 2691 219 2414 64 
Q 2138 -91 1772 -91 
Q 1169 -91 856 284 
Q 544 659 544 1381 
z
M 1991 3584 
L 1991 3584 
z
" transform="scale(0.015625)"/>
       <path id="DejaVuSans-6e" d="M 3513 2113 
L 3513 0 
L 2938 0 
L 2938 2094 
Q 2938 2591 2744 2837 
Q 2550 3084 2163 3084 
Q 1697 3084 1428 2787 
Q 1159 2491 1159 1978 
L 1159 0 
L 581 0 
L 581 3500 
L 1159 3500 
L 1159 2956 
Q 1366 3272 1645 3428 
Q 1925 3584 2291 3584 
Q 2894 3584 3203 3211 
Q 3513 2838 3513 2113 
z
" transform="scale(0.015625)"/>
       <path id="DejaVuSans-64" d="M 2906 2969 
L 2906 4863 
L 3481 4863 
L 3481 0 
L 2906 0 
L 2906 525 
Q 2725 213 2448 61 
Q 2172 -91 1784 -91 
Q 1150 -91 751 415 
Q 353 922 353 1747 
Q 353 2572 751 3078 
Q 1150 3584 1784 3584 
Q 2172 3584 2448 3432 
Q 2725 3281 2906 2969 
z
M 947 1747 
Q 947 1113 1208 752 
Q 1469 391 1925 391 
Q 2381 391 2643 752 
Q 2906 1113 2906 1747 
Q 2906 2381 2643 2742 
Q 2381 3103 1925 3103 
Q 1469 3103 1208 2742 
Q 947 2381 947 1747 
z
" transform="scale(0.015625)"/>
       <path id="DejaVuSans-6c" d="M 603 4863 
L 1178 4863 
L 1178 0 
L 603 0 
L 603 4863 
z
" transform="scale(0.015625)"/>
      </defs>
      <use xlink:href="#DejaVuSans-50"/>
      <use xlink:href="#DejaVuSans-72" x="58.552734"/>
      <use xlink:href="#DejaVuSans-69" x="99.666016"/>
      <use xlink:href="#DejaVuSans-63" x="127.449219"/>
      <use xlink:href="#DejaVuSans-65" x="182.429688"/>
      <use xlink:href="#DejaVuSans-20" x="243.953125"/>
      <use xlink:href="#DejaVuSans-28" x="275.740234"/>
      <use xlink:href="#DejaVuSans-74" x="314.753906"/>
      <use xlink:href="#DejaVuSans-68" x="353.962891"/>
      <use xlink:href="#DejaVuSans-6f" x="417.341797"/>
      <use xlink:href="#DejaVuSans-75" x="478.523438"/>
      <use xlink:href="#DejaVuSans-73" x="541.902344"/>
      <use xlink:href="#DejaVuSans-61" x="594.001953"/>
      <use xlink:href="#DejaVuSans-6e" x="655.28125"/>
      <use xlink:href="#DejaVuSans-64" x="718.660156"/>
      <use xlink:href="#DejaVuSans-20" x="782.136719"/>
      <use xlink:href="#DejaVuSans-64" x="813.923828"/>
      <use xlink:href="#DejaVuSans-6f" x="877.400391"/>
      <use xlink:href="#DejaVuSans-6c" x="938.582031"/>
      <use xlink:href="#DejaVuSans-6c" x="966.365234"/>
      <use xlink:href="#DejaVuSans-61" x="994.148438"/>
      <use xlink:href="#DejaVuSans-72" x="1055.427734"/>
      <use xlink:href="#DejaVuSans-73" x="1096.541016"/>
      <use xlink:href="#DejaVuSans-29" x="1148.640625"/>
     </g>
    </g>
   </g>
   <g id="patch_3">
    <path d="M 46.965625 410.398125 
L 46.965625 22.318125 
" style="fill: none; stroke: #000000; stroke-width: 0.8; stroke-linejoin: miter; stroke-linecap: square"/>
   </g>
   <g id="patch_4">
    <path d="M 437.565625 410.398125 
L 437.565625 22.318125 
" style="fill: none; stroke: #000000; stroke-width: 0.8; stroke-linejoin: miter; stroke-linecap: square"/>
   </g>
   <g id="patch_5">
    <path d="M 46.965625 410.398125 
L 437.565625 410.398125 
" style="fill: none; stroke: #000000; stroke-width: 0.8; stroke-linejoin: miter; stroke-linecap: square"/>
   </g>
   <g id="patch_6">
    <path d="M 46.965625 22.318125 
L 437.565625 22.318125 
" style="fill: none; stroke: #000000; stroke-width: 0.8; stroke-linejoin: miter; stroke-linecap: square"/>
   </g>
   <g id="text_17">
    <!-- Posterior predictive regression lines -->
    <g transform="translate(134.96125 16.318125) scale(0.12 -0.12)">
     <defs>
      <path id="DejaVuSans-70" d="M 1159 525 
L 1159 -1331 
L 581 -1331 
L 581 3500 
L 1159 3500 
L 1159 2969 
Q 1341 3281 1617 3432 
Q 1894 3584 2278 3584 
Q 2916 3584 3314 3078 
Q 3713 2572 3713 1747 
Q 3713 922 3314 415 
Q 2916 -91 2278 -91 
Q 1894 -91 1617 61 
Q 1341 213 1159 525 
z
M 3116 1747 
Q 3116 2381 2855 2742 
Q 2594 3103 2138 3103 
Q 1681 3103 1420 2742 
Q 1159 2381 1159 1747 
Q 1159 1113 1420 752 
Q 1681 391 2138 391 
Q 2594 391 2855 752 
Q 3116 1113 3116 1747 
z
" transform="scale(0.015625)"/>
      <path id="DejaVuSans-76" d="M 191 3500 
L 800 3500 
L 1894 563 
L 2988 3500 
L 3597 3500 
L 2284 0 
L 1503 0 
L 191 3500 
z
" transform="scale(0.015625)"/>
      <path id="DejaVuSans-67" d="M 2906 1791 
Q 2906 2416 2648 2759 
Q 2391 3103 1925 3103 
Q 1463 3103 1205 2759 
Q 947 2416 947 1791 
Q 947 1169 1205 825 
Q 1463 481 1925 481 
Q 2391 481 2648 825 
Q 2906 1169 2906 1791 
z
M 3481 434 
Q 3481 -459 3084 -895 
Q 2688 -1331 1869 -1331 
Q 1566 -1331 1297 -1286 
Q 1028 -1241 775 -1147 
L 775 -588 
Q 1028 -725 1275 -790 
Q 1522 -856 1778 -856 
Q 2344 -856 2625 -561 
Q 2906 -266 2906 331 
L 2906 616 
Q 2728 306 2450 153 
Q 2172 0 1784 0 
Q 1141 0 747 490 
Q 353 981 353 1791 
Q 353 2603 747 3093 
Q 1141 3584 1784 3584 
Q 2172 3584 2450 3431 
Q 2728 3278 2906 2969 
L 2906 3500 
L 3481 3500 
L 3481 434 
z
" transform="scale(0.015625)"/>
     </defs>
     <use xlink:href="#DejaVuSans-50"/>
     <use xlink:href="#DejaVuSans-6f" x="56.677734"/>
     <use xlink:href="#DejaVuSans-73" x="117.859375"/>
     <use xlink:href="#DejaVuSans-74" x="169.958984"/>
     <use xlink:href="#DejaVuSans-65" x="209.167969"/>
     <use xlink:href="#DejaVuSans-72" x="270.691406"/>
     <use xlink:href="#DejaVuSans-69" x="311.804688"/>
     <use xlink:href="#DejaVuSans-6f" x="339.587891"/>
     <use xlink:href="#DejaVuSans-72" x="400.769531"/>
     <use xlink:href="#DejaVuSans-20" x="441.882812"/>
     <use xlink:href="#DejaVuSans-70" x="473.669922"/>
     <use xlink:href="#DejaVuSans-72" x="537.146484"/>
     <use xlink:href="#DejaVuSans-65" x="576.009766"/>
     <use xlink:href="#DejaVuSans-64" x="637.533203"/>
     <use xlink:href="#DejaVuSans-69" x="701.009766"/>
     <use xlink:href="#DejaVuSans-63" x="728.792969"/>
     <use xlink:href="#DejaVuSans-74" x="783.773438"/>
     <use xlink:href="#DejaVuSans-69" x="822.982422"/>
     <use xlink:href="#DejaVuSans-76" x="850.765625"/>
     <use xlink:href="#DejaVuSans-65" x="909.945312"/>
     <use xlink:href="#DejaVuSans-20" x="971.46875"/>
     <use xlink:href="#DejaVuSans-72" x="1003.255859"/>
     <use xlink:href="#DejaVuSans-65" x="1042.119141"/>
     <use xlink:href="#DejaVuSans-67" x="1103.642578"/>
     <use xlink:href="#DejaVuSans-72" x="1167.119141"/>
     <use xlink:href="#DejaVuSans-65" x="1205.982422"/>
     <use xlink:href="#DejaVuSans-73" x="1267.505859"/>
     <use xlink:href="#DejaVuSans-73" x="1319.605469"/>
     <use xlink:href="#DejaVuSans-69" x="1371.705078"/>
     <use xlink:href="#DejaVuSans-6f" x="1399.488281"/>
     <use xlink:href="#DejaVuSans-6e" x="1460.669922"/>
     <use xlink:href="#DejaVuSans-20" x="1524.048828"/>
     <use xlink:href="#DejaVuSans-6c" x="1555.835938"/>
     <use xlink:href="#DejaVuSans-69" x="1583.619141"/>
     <use xlink:href="#DejaVuSans-6e" x="1611.402344"/>
     <use xlink:href="#DejaVuSans-65" x="1674.78125"/>
     <use xlink:href="#DejaVuSans-73" x="1736.304688"/>
    </g>
   </g>
   <g id="legend_1">
    <g id="patch_7">
     <path d="M 56.765625 95.555625 
L 244.72 95.555625 
Q 247.52 95.555625 247.52 92.755625 
L 247.52 32.118125 
Q 247.52 29.318125 244.72 29.318125 
L 56.765625 29.318125 
Q 53.965625 29.318125 53.965625 32.118125 
L 53.965625 92.755625 
Q 53.965625 95.555625 56.765625 95.555625 
z
" style="fill: #ffffff; opacity: 0.8; stroke: #cccccc; stroke-linejoin: miter"/>
    </g>
    <g id="line2d_29">
     <path d="M 59.565625 40.655937 
L 73.565625 40.655937 
L 87.565625 40.655937 
" style="fill: none"/>
     <defs>
      <path id="m2c1abe2808" d="M 0 3.75 
C 0.994512 3.75 1.948425 3.354876 2.65165 2.65165 
C 3.354876 1.948425 3.75 0.994512 3.75 0 
C 3.75 -0.994512 3.354876 -1.948425 2.65165 -2.65165 
C 1.948425 -3.354876 0.994512 -3.75 0 -3.75 
C -0.994512 -3.75 -1.948425 -3.354876 -2.65165 -2.65165 
C -3.354876 -1.948425 -3.75 -0.994512 -3.75 0 
C -3.75 0.994512 -3.354876 1.948425 -2.65165 2.65165 
C -1.948425 3.354876 -0.994512 3.75 0 3.75 
z
" style="stroke: #d62728"/>
     </defs>
     <g>
      <use xlink:href="#m2c1abe2808" x="73.565625" y="40.655937" style="fill: #d62728; stroke: #d62728"/>
     </g>
    </g>
    <g id="text_18">
     <!-- observed_data -->
     <g transform="translate(98.765625 45.555937) scale(0.14 -0.14)">
      <defs>
       <path id="DejaVuSans-62" d="M 3116 1747 
Q 3116 2381 2855 2742 
Q 2594 3103 2138 3103 
Q 1681 3103 1420 2742 
Q 1159 2381 1159 1747 
Q 1159 1113 1420 752 
Q 1681 391 2138 391 
Q 2594 391 2855 752 
Q 3116 1113 3116 1747 
z
M 1159 2969 
Q 1341 3281 1617 3432 
Q 1894 3584 2278 3584 
Q 2916 3584 3314 3078 
Q 3713 2572 3713 1747 
Q 3713 922 3314 415 
Q 2916 -91 2278 -91 
Q 1894 -91 1617 61 
Q 1341 213 1159 525 
L 1159 0 
L 581 0 
L 581 4863 
L 1159 4863 
L 1159 2969 
z
" transform="scale(0.015625)"/>
       <path id="DejaVuSans-5f" d="M 3263 -1063 
L 3263 -1509 
L -63 -1509 
L -63 -1063 
L 3263 -1063 
z
" transform="scale(0.015625)"/>
      </defs>
      <use xlink:href="#DejaVuSans-6f"/>
      <use xlink:href="#DejaVuSans-62" x="61.181641"/>
      <use xlink:href="#DejaVuSans-73" x="124.658203"/>
      <use xlink:href="#DejaVuSans-65" x="176.757812"/>
      <use xlink:href="#DejaVuSans-72" x="238.28125"/>
      <use xlink:href="#DejaVuSans-76" x="279.394531"/>
      <use xlink:href="#DejaVuSans-65" x="338.574219"/>
      <use xlink:href="#DejaVuSans-64" x="400.097656"/>
      <use xlink:href="#DejaVuSans-5f" x="463.574219"/>
      <use xlink:href="#DejaVuSans-64" x="513.574219"/>
      <use xlink:href="#DejaVuSans-61" x="577.050781"/>
      <use xlink:href="#DejaVuSans-74" x="638.330078"/>
      <use xlink:href="#DejaVuSans-61" x="677.539062"/>
     </g>
    </g>
    <g id="line2d_30">
     <path d="M 59.565625 61.594687 
L 73.565625 61.594687 
L 87.565625 61.594687 
" style="fill: none; stroke: #e377c2; stroke-opacity: 0.5; stroke-width: 0.5; stroke-linecap: square"/>
    </g>
    <g id="text_19">
     <!-- Uncertainty in mean -->
     <g transform="translate(98.765625 66.494687) scale(0.14 -0.14)">
      <defs>
       <path id="DejaVuSans-55" d="M 556 4666 
L 1191 4666 
L 1191 1831 
Q 1191 1081 1462 751 
Q 1734 422 2344 422 
Q 2950 422 3222 751 
Q 3494 1081 3494 1831 
L 3494 4666 
L 4128 4666 
L 4128 1753 
Q 4128 841 3676 375 
Q 3225 -91 2344 -91 
Q 1459 -91 1007 375 
Q 556 841 556 1753 
L 556 4666 
z
" transform="scale(0.015625)"/>
       <path id="DejaVuSans-79" d="M 2059 -325 
Q 1816 -950 1584 -1140 
Q 1353 -1331 966 -1331 
L 506 -1331 
L 506 -850 
L 844 -850 
Q 1081 -850 1212 -737 
Q 1344 -625 1503 -206 
L 1606 56 
L 191 3500 
L 800 3500 
L 1894 763 
L 2988 3500 
L 3597 3500 
L 2059 -325 
z
" transform="scale(0.015625)"/>
      </defs>
      <use xlink:href="#DejaVuSans-55"/>
      <use xlink:href="#DejaVuSans-6e" x="73.193359"/>
      <use xlink:href="#DejaVuSans-63" x="136.572266"/>
      <use xlink:href="#DejaVuSans-65" x="191.552734"/>
      <use xlink:href="#DejaVuSans-72" x="253.076172"/>
      <use xlink:href="#DejaVuSans-74" x="294.189453"/>
      <use xlink:href="#DejaVuSans-61" x="333.398438"/>
      <use xlink:href="#DejaVuSans-69" x="394.677734"/>
      <use xlink:href="#DejaVuSans-6e" x="422.460938"/>
      <use xlink:href="#DejaVuSans-74" x="485.839844"/>
      <use xlink:href="#DejaVuSans-79" x="525.048828"/>
      <use xlink:href="#DejaVuSans-20" x="584.228516"/>
      <use xlink:href="#DejaVuSans-69" x="616.015625"/>
      <use xlink:href="#DejaVuSans-6e" x="643.798828"/>
      <use xlink:href="#DejaVuSans-20" x="707.177734"/>
      <use xlink:href="#DejaVuSans-6d" x="738.964844"/>
      <use xlink:href="#DejaVuSans-65" x="836.376953"/>
      <use xlink:href="#DejaVuSans-61" x="897.900391"/>
      <use xlink:href="#DejaVuSans-6e" x="959.179688"/>
     </g>
    </g>
    <g id="line2d_31">
     <path d="M 59.565625 82.144062 
L 73.565625 82.144062 
L 87.565625 82.144062 
" style="fill: none; stroke: #e377c2; stroke-width: 0.8; stroke-linecap: square"/>
    </g>
    <g id="text_20">
     <!-- Mean -->
     <g transform="translate(98.765625 87.044062) scale(0.14 -0.14)">
      <defs>
       <path id="DejaVuSans-4d" d="M 628 4666 
L 1569 4666 
L 2759 1491 
L 3956 4666 
L 4897 4666 
L 4897 0 
L 4281 0 
L 4281 4097 
L 3078 897 
L 2444 897 
L 1241 4097 
L 1241 0 
L 628 0 
L 628 4666 
z
" transform="scale(0.015625)"/>
      </defs>
      <use xlink:href="#DejaVuSans-4d"/>
      <use xlink:href="#DejaVuSans-65" x="86.279297"/>
      <use xlink:href="#DejaVuSans-61" x="147.802734"/>
      <use xlink:href="#DejaVuSans-6e" x="209.082031"/>
     </g>
    </g>
   </g>
   <g id="line2d_32">
    <path d="M 64.72017 373.545979 
L 419.81108 81.638594 
L 419.81108 81.638594 
" clip-path="url(#p9e7352af25)" style="fill: none; stroke: #e377c2; stroke-opacity: 0.5; stroke-width: 0.5; stroke-linecap: square"/>
   </g>
   <g id="line2d_33">
    <path d="M 64.72017 373.927728 
L 419.81108 85.543193 
L 419.81108 85.543193 
" clip-path="url(#p9e7352af25)" style="fill: none; stroke: #e377c2; stroke-opacity: 0.5; stroke-width: 0.5; stroke-linecap: square"/>
   </g>
   <g id="line2d_34">
    <path d="M 64.72017 381.185093 
L 419.81108 78.816053 
L 419.81108 78.816053 
" clip-path="url(#p9e7352af25)" style="fill: none; stroke: #e377c2; stroke-opacity: 0.5; stroke-width: 0.5; stroke-linecap: square"/>
   </g>
   <g id="line2d_35">
    <path d="M 64.72017 377.93169 
L 419.81108 82.498128 
L 419.81108 82.498128 
" clip-path="url(#p9e7352af25)" style="fill: none; stroke: #e377c2; stroke-opacity: 0.5; stroke-width: 0.5; stroke-linecap: square"/>
   </g>
   <g id="line2d_36">
    <path d="M 64.72017 378.101408 
L 419.81108 80.727983 
L 419.81108 80.727983 
" clip-path="url(#p9e7352af25)" style="fill: none; stroke: #e377c2; stroke-opacity: 0.5; stroke-width: 0.5; stroke-linecap: square"/>
   </g>
   <g id="line2d_37">
    <path d="M 64.72017 377.476745 
L 419.81108 80.352807 
L 419.81108 80.352807 
" clip-path="url(#p9e7352af25)" style="fill: none; stroke: #e377c2; stroke-opacity: 0.5; stroke-width: 0.5; stroke-linecap: square"/>
   </g>
   <g id="line2d_38">
    <path d="M 64.72017 371.204759 
L 419.81108 87.189664 
L 419.81108 87.189664 
" clip-path="url(#p9e7352af25)" style="fill: none; stroke: #e377c2; stroke-opacity: 0.5; stroke-width: 0.5; stroke-linecap: square"/>
   </g>
   <g id="line2d_39">
    <path d="M 64.72017 374.98894 
L 419.81108 84.985982 
L 419.81108 84.985982 
" clip-path="url(#p9e7352af25)" style="fill: none; stroke: #e377c2; stroke-opacity: 0.5; stroke-width: 0.5; stroke-linecap: square"/>
   </g>
   <g id="line2d_40">
    <path d="M 64.72017 377.445533 
L 419.81108 82.24521 
L 419.81108 82.24521 
" clip-path="url(#p9e7352af25)" style="fill: none; stroke: #e377c2; stroke-opacity: 0.5; stroke-width: 0.5; stroke-linecap: square"/>
   </g>
   <g id="line2d_41">
    <path d="M 64.72017 371.763147 
L 419.81108 85.478096 
L 419.81108 85.478096 
" clip-path="url(#p9e7352af25)" style="fill: none; stroke: #e377c2; stroke-opacity: 0.5; stroke-width: 0.5; stroke-linecap: square"/>
   </g>
   <g id="line2d_42">
    <path d="M 64.72017 373.609606 
L 419.81108 82.489135 
L 419.81108 82.489135 
" clip-path="url(#p9e7352af25)" style="fill: none; stroke: #e377c2; stroke-opacity: 0.5; stroke-width: 0.5; stroke-linecap: square"/>
   </g>
   <g id="line2d_43">
    <path d="M 64.72017 375.904046 
L 419.81108 81.834168 
L 419.81108 81.834168 
" clip-path="url(#p9e7352af25)" style="fill: none; stroke: #e377c2; stroke-opacity: 0.5; stroke-width: 0.5; stroke-linecap: square"/>
   </g>
   <g id="line2d_44">
    <path d="M 64.72017 377.703221 
L 419.81108 78.714248 
L 419.81108 78.714248 
" clip-path="url(#p9e7352af25)" style="fill: none; stroke: #e377c2; stroke-opacity: 0.5; stroke-width: 0.5; stroke-linecap: square"/>
   </g>
   <g id="line2d_45">
    <path d="M 64.72017 378.098391 
L 419.81108 84.833982 
L 419.81108 84.833982 
" clip-path="url(#p9e7352af25)" style="fill: none; stroke: #e377c2; stroke-opacity: 0.5; stroke-width: 0.5; stroke-linecap: square"/>
   </g>
   <g id="line2d_46">
    <path d="M 64.72017 377.489837 
L 419.81108 83.715111 
L 419.81108 83.715111 
" clip-path="url(#p9e7352af25)" style="fill: none; stroke: #e377c2; stroke-opacity: 0.5; stroke-width: 0.5; stroke-linecap: square"/>
   </g>
   <g id="line2d_47">
    <path d="M 64.72017 375.534655 
L 419.81108 82.579778 
L 419.81108 82.579778 
" clip-path="url(#p9e7352af25)" style="fill: none; stroke: #e377c2; stroke-opacity: 0.5; stroke-width: 0.5; stroke-linecap: square"/>
   </g>
   <g id="line2d_48">
    <path d="M 64.72017 374.802372 
L 419.81108 83.975111 
L 419.81108 83.975111 
" clip-path="url(#p9e7352af25)" style="fill: none; stroke: #e377c2; stroke-opacity: 0.5; stroke-width: 0.5; stroke-linecap: square"/>
   </g>
   <g id="line2d_49">
    <path d="M 64.72017 377.357277 
L 419.81108 84.537191 
L 419.81108 84.537191 
" clip-path="url(#p9e7352af25)" style="fill: none; stroke: #e377c2; stroke-opacity: 0.5; stroke-width: 0.5; stroke-linecap: square"/>
   </g>
   <g id="line2d_50">
    <path d="M 64.72017 376.897848 
L 419.81108 83.965328 
L 419.81108 83.965328 
" clip-path="url(#p9e7352af25)" style="fill: none; stroke: #e377c2; stroke-opacity: 0.5; stroke-width: 0.5; stroke-linecap: square"/>
   </g>
   <g id="line2d_51">
    <path d="M 64.72017 375.498578 
L 419.81108 82.679519 
L 419.81108 82.679519 
" clip-path="url(#p9e7352af25)" style="fill: none; stroke: #e377c2; stroke-opacity: 0.5; stroke-width: 0.5; stroke-linecap: square"/>
   </g>
   <g id="line2d_52">
    <path d="M 64.72017 373.278244 
L 419.81108 82.465831 
L 419.81108 82.465831 
" clip-path="url(#p9e7352af25)" style="fill: none; stroke: #e377c2; stroke-opacity: 0.5; stroke-width: 0.5; stroke-linecap: square"/>
   </g>
   <g id="line2d_53">
    <path d="M 64.72017 374.944254 
L 419.81108 85.495602 
L 419.81108 85.495602 
" clip-path="url(#p9e7352af25)" style="fill: none; stroke: #e377c2; stroke-opacity: 0.5; stroke-width: 0.5; stroke-linecap: square"/>
   </g>
   <g id="line2d_54">
    <path d="M 64.72017 370.983902 
L 419.81108 86.877556 
L 419.81108 86.877556 
" clip-path="url(#p9e7352af25)" style="fill: none; stroke: #e377c2; stroke-opacity: 0.5; stroke-width: 0.5; stroke-linecap: square"/>
   </g>
   <g id="line2d_55">
    <path d="M 64.72017 371.747263 
L 419.81108 84.380506 
L 419.81108 84.380506 
" clip-path="url(#p9e7352af25)" style="fill: none; stroke: #e377c2; stroke-opacity: 0.5; stroke-width: 0.5; stroke-linecap: square"/>
   </g>
   <g id="line2d_56">
    <path d="M 64.72017 372.909555 
L 419.81108 82.897798 
L 419.81108 82.897798 
" clip-path="url(#p9e7352af25)" style="fill: none; stroke: #e377c2; stroke-opacity: 0.5; stroke-width: 0.5; stroke-linecap: square"/>
   </g>
   <g id="line2d_57">
    <path d="M 64.72017 374.807045 
L 419.81108 80.675282 
L 419.81108 80.675282 
" clip-path="url(#p9e7352af25)" style="fill: none; stroke: #e377c2; stroke-opacity: 0.5; stroke-width: 0.5; stroke-linecap: square"/>
   </g>
   <g id="line2d_58">
    <path d="M 64.72017 372.678594 
L 419.81108 84.518887 
L 419.81108 84.518887 
" clip-path="url(#p9e7352af25)" style="fill: none; stroke: #e377c2; stroke-opacity: 0.5; stroke-width: 0.5; stroke-linecap: square"/>
   </g>
   <g id="line2d_59">
    <path d="M 64.72017 379.507096 
L 419.81108 81.645838 
L 419.81108 81.645838 
" clip-path="url(#p9e7352af25)" style="fill: none; stroke: #e377c2; stroke-opacity: 0.5; stroke-width: 0.5; stroke-linecap: square"/>
   </g>
   <g id="line2d_60">
    <path d="M 64.72017 370.136949 
L 419.81108 84.527692 
L 419.81108 84.527692 
" clip-path="url(#p9e7352af25)" style="fill: none; stroke: #e377c2; stroke-opacity: 0.5; stroke-width: 0.5; stroke-linecap: square"/>
   </g>
   <g id="line2d_61">
    <path d="M 64.72017 375.969618 
L 419.81108 82.392541 
L 419.81108 82.392541 
" clip-path="url(#p9e7352af25)" style="fill: none; stroke: #e377c2; stroke-opacity: 0.5; stroke-width: 0.5; stroke-linecap: square"/>
   </g>
   <g id="line2d_62">
    <path d="M 64.72017 374.377564 
L 419.81108 83.632397 
L 419.81108 83.632397 
" clip-path="url(#p9e7352af25)" style="fill: none; stroke: #e377c2; stroke-opacity: 0.5; stroke-width: 0.5; stroke-linecap: square"/>
   </g>
   <g id="line2d_63">
    <path d="M 64.72017 375.011566 
L 419.81108 84.047243 
L 419.81108 84.047243 
" clip-path="url(#p9e7352af25)" style="fill: none; stroke: #e377c2; stroke-opacity: 0.5; stroke-width: 0.5; stroke-linecap: square"/>
   </g>
   <g id="line2d_64">
    <path d="M 64.72017 377.563416 
L 419.81108 81.037034 
L 419.81108 81.037034 
" clip-path="url(#p9e7352af25)" style="fill: none; stroke: #e377c2; stroke-opacity: 0.5; stroke-width: 0.5; stroke-linecap: square"/>
   </g>
   <g id="line2d_65">
    <path d="M 64.72017 376.86622 
L 419.81108 79.573352 
L 419.81108 79.573352 
" clip-path="url(#p9e7352af25)" style="fill: none; stroke: #e377c2; stroke-opacity: 0.5; stroke-width: 0.5; stroke-linecap: square"/>
   </g>
   <g id="line2d_66">
    <path d="M 64.72017 375.342305 
L 419.81108 82.11386 
L 419.81108 82.11386 
" clip-path="url(#p9e7352af25)" style="fill: none; stroke: #e377c2; stroke-opacity: 0.5; stroke-width: 0.5; stroke-linecap: square"/>
   </g>
   <g id="line2d_67">
    <path d="M 64.72017 373.337513 
L 419.81108 84.074696 
L 419.81108 84.074696 
" clip-path="url(#p9e7352af25)" style="fill: none; stroke: #e377c2; stroke-opacity: 0.5; stroke-width: 0.5; stroke-linecap: square"/>
   </g>
   <g id="line2d_68">
    <path d="M 64.72017 371.443222 
L 419.81108 86.703612 
L 419.81108 86.703612 
" clip-path="url(#p9e7352af25)" style="fill: none; stroke: #e377c2; stroke-opacity: 0.5; stroke-width: 0.5; stroke-linecap: square"/>
   </g>
   <g id="line2d_69">
    <path d="M 64.72017 373.42265 
L 419.81108 80.379628 
L 419.81108 80.379628 
" clip-path="url(#p9e7352af25)" style="fill: none; stroke: #e377c2; stroke-opacity: 0.5; stroke-width: 0.5; stroke-linecap: square"/>
   </g>
   <g id="line2d_70">
    <path d="M 64.72017 371.845141 
L 419.81108 85.55929 
L 419.81108 85.55929 
" clip-path="url(#p9e7352af25)" style="fill: none; stroke: #e377c2; stroke-opacity: 0.5; stroke-width: 0.5; stroke-linecap: square"/>
   </g>
   <g id="line2d_71">
    <path d="M 64.72017 376.486356 
L 419.81108 84.738442 
L 419.81108 84.738442 
" clip-path="url(#p9e7352af25)" style="fill: none; stroke: #e377c2; stroke-opacity: 0.5; stroke-width: 0.5; stroke-linecap: square"/>
   </g>
   <g id="line2d_72">
    <path d="M 64.72017 374.474103 
L 419.81108 80.979319 
L 419.81108 80.979319 
" clip-path="url(#p9e7352af25)" style="fill: none; stroke: #e377c2; stroke-opacity: 0.5; stroke-width: 0.5; stroke-linecap: square"/>
   </g>
   <g id="line2d_73">
    <path d="M 64.72017 376.597532 
L 419.81108 78.953141 
L 419.81108 78.953141 
" clip-path="url(#p9e7352af25)" style="fill: none; stroke: #e377c2; stroke-opacity: 0.5; stroke-width: 0.5; stroke-linecap: square"/>
   </g>
   <g id="line2d_74">
    <path d="M 64.72017 379.254403 
L 419.81108 81.120088 
L 419.81108 81.120088 
" clip-path="url(#p9e7352af25)" style="fill: none; stroke: #e377c2; stroke-opacity: 0.5; stroke-width: 0.5; stroke-linecap: square"/>
   </g>
   <g id="line2d_75">
    <path d="M 64.72017 372.242822 
L 419.81108 87.320493 
L 419.81108 87.320493 
" clip-path="url(#p9e7352af25)" style="fill: none; stroke: #e377c2; stroke-opacity: 0.5; stroke-width: 0.5; stroke-linecap: square"/>
   </g>
   <g id="line2d_76">
    <path d="M 64.72017 372.309307 
L 419.81108 83.966559 
L 419.81108 83.966559 
" clip-path="url(#p9e7352af25)" style="fill: none; stroke: #e377c2; stroke-opacity: 0.5; stroke-width: 0.5; stroke-linecap: square"/>
   </g>
   <g id="line2d_77">
    <path d="M 64.72017 373.552266 
L 419.81108 83.4167 
L 419.81108 83.4167 
" clip-path="url(#p9e7352af25)" style="fill: none; stroke: #e377c2; stroke-opacity: 0.5; stroke-width: 0.5; stroke-linecap: square"/>
   </g>
   <g id="line2d_78">
    <path d="M 64.72017 378.810354 
L 419.81108 78.536174 
L 419.81108 78.536174 
" clip-path="url(#p9e7352af25)" style="fill: none; stroke: #e377c2; stroke-opacity: 0.5; stroke-width: 0.5; stroke-linecap: square"/>
   </g>
   <g id="line2d_79">
    <path d="M 64.72017 374.402288 
L 419.81108 85.823165 
L 419.81108 85.823165 
" clip-path="url(#p9e7352af25)" style="fill: none; stroke: #e377c2; stroke-opacity: 0.5; stroke-width: 0.5; stroke-linecap: square"/>
   </g>
   <g id="line2d_80">
    <path d="M 64.72017 374.202457 
L 419.81108 83.440273 
L 419.81108 83.440273 
" clip-path="url(#p9e7352af25)" style="fill: none; stroke: #e377c2; stroke-opacity: 0.5; stroke-width: 0.5; stroke-linecap: square"/>
   </g>
   <g id="line2d_81">
    <path d="M 64.72017 373.792179 
L 419.81108 85.768073 
L 419.81108 85.768073 
" clip-path="url(#p9e7352af25)" style="fill: none; stroke: #e377c2; stroke-opacity: 0.5; stroke-width: 0.5; stroke-linecap: square"/>
   </g>
   <g id="line2d_82"/>
   <g id="line2d_83">
    <path d="M 64.72017 379.440695 
L 66.504547 355.544613 
L 68.288923 381.575841 
L 70.0733 362.159276 
L 71.857676 353.787631 
L 73.642053 360.418671 
L 75.426429 368.220024 
L 77.210805 392.758125 
L 78.995182 369.013834 
L 80.779558 363.275159 
L 82.563935 352.438721 
L 84.348311 358.549653 
L 86.132688 338.172379 
L 87.917064 345.692467 
L 89.70144 362.018711 
L 91.485817 332.123017 
L 93.270193 385.189718 
L 95.05457 347.359023 
L 96.838946 366.250093 
L 98.623323 329.685418 
L 100.407699 339.651171 
L 102.192075 361.017188 
L 103.976452 345.592733 
L 105.760828 337.071535 
L 107.545205 369.594948 
L 109.329581 334.910115 
L 111.113958 331.423471 
L 112.898334 352.875994 
L 114.68271 342.657527 
L 116.467087 320.700495 
L 118.251463 341.679718 
L 120.03584 323.473776 
L 121.820216 324.057028 
L 123.604593 325.564474 
L 125.388969 337.644245 
L 127.173345 337.257186 
L 128.957722 315.864379 
L 130.742098 303.606922 
L 132.526475 313.663567 
L 134.310851 337.331291 
L 136.095228 332.860723 
L 137.879604 322.115423 
L 139.66398 317.425265 
L 141.448357 313.175997 
L 143.232733 290.499767 
L 145.01711 323.607197 
L 146.801486 315.06596 
L 148.585863 302.384532 
L 150.370239 303.657253 
L 152.154615 285.192126 
L 153.938992 302.428005 
L 155.723368 318.563867 
L 157.507745 282.988646 
L 159.292121 294.757293 
L 161.076498 301.125073 
L 162.860874 283.603954 
L 164.64525 281.052409 
L 166.429627 292.512766 
L 168.214003 308.954588 
L 169.99838 312.389488 
L 171.782756 269.423571 
L 173.567133 281.621087 
L 175.351509 281.998964 
L 177.135885 288.247908 
L 178.920262 275.047404 
L 180.704638 267.5266 
L 182.489015 273.676078 
L 184.273391 267.210289 
L 186.057768 277.001895 
L 187.842144 241.401568 
L 189.62652 272.492973 
L 191.410897 274.571144 
L 193.195273 262.447679 
L 194.97965 254.66404 
L 196.764026 271.596526 
L 198.548403 275.842121 
L 200.332779 232.762187 
L 202.117155 249.922173 
L 203.901532 260.705745 
L 205.685908 268.777917 
L 207.470285 254.290918 
L 209.254661 232.095288 
L 211.039038 266.698909 
L 212.823414 280.942048 
L 214.60779 219.399499 
L 216.392167 243.044435 
L 218.176543 260.093533 
L 219.96092 253.614157 
L 221.745296 238.621314 
L 223.529673 252.201162 
L 225.314049 242.841899 
L 227.098425 272.532108 
L 228.882802 257.461455 
L 230.667178 207.747867 
L 232.451555 230.967838 
L 234.235931 259.271269 
L 236.020308 209.641971 
L 237.804684 215.050495 
L 239.58906 229.460293 
L 241.373437 225.180934 
L 243.157813 238.085428 
L 244.94219 230.380618 
L 246.726566 221.022358 
L 248.510942 231.37274 
L 250.295319 212.545244 
L 252.079695 224.009713 
L 253.864072 217.582397 
L 255.648448 215.785329 
L 257.432825 219.091406 
L 259.217201 233.180659 
L 261.001577 221.604894 
L 262.785954 215.687592 
L 264.57033 213.982346 
L 266.354707 172.09903 
L 268.139083 220.50423 
L 269.92346 216.003764 
L 271.707836 193.034592 
L 273.492212 210.359006 
L 275.276589 188.154697 
L 277.060965 225.901921 
L 278.845342 199.348852 
L 280.629718 208.26627 
L 282.414095 211.892218 
L 284.198471 181.620741 
L 285.982847 209.022901 
L 287.767224 186.755863 
L 289.5516 210.780138 
L 291.335977 180.879364 
L 293.120353 188.733481 
L 294.90473 207.677259 
L 296.689106 207.020159 
L 298.473482 186.481267 
L 300.257859 181.368971 
L 302.042235 176.819451 
L 303.826612 147.301873 
L 305.610988 159.808036 
L 307.395365 164.963435 
L 309.179741 196.358691 
L 310.964117 165.060301 
L 312.748494 168.183814 
L 314.53287 132.827549 
L 316.317247 151.59848 
L 318.101623 159.26367 
L 319.886 156.538919 
L 321.670376 177.792435 
L 323.454752 148.836756 
L 325.239129 173.168825 
L 327.023505 154.34394 
L 328.807882 165.935268 
L 330.592258 155.326849 
L 332.376635 169.554869 
L 334.161011 160.101511 
L 335.945387 152.034885 
L 337.729764 169.770333 
L 339.51414 119.699362 
L 341.298517 164.401055 
L 343.082893 130.54632 
L 344.86727 142.027254 
L 346.651646 141.403189 
L 348.436022 136.208457 
L 350.220399 145.585703 
L 352.004775 130.969856 
L 353.789152 150.00379 
L 355.573528 145.356706 
L 357.357905 147.492725 
L 359.142281 111.703234 
L 360.926657 129.404785 
L 362.711034 133.170363 
L 364.49541 138.303624 
L 366.279787 125.778949 
L 369.84854 146.702789 
L 371.632916 121.501587 
L 373.417292 118.760366 
L 375.201669 112.018656 
L 376.986045 120.647831 
L 378.770422 99.664031 
L 380.554798 89.987356 
L 382.339175 140.296104 
L 384.123551 92.818305 
L 385.907927 120.033284 
L 387.692304 138.362766 
L 389.47668 98.227617 
L 391.261057 90.157288 
L 393.045433 97.775994 
L 394.82981 78.995079 
L 396.614186 138.38015 
L 398.398562 132.69527 
L 400.182939 119.858048 
L 401.967315 98.33807 
L 403.751692 111.315698 
L 405.536068 113.252599 
L 407.320445 77.173236 
L 409.104821 77.104653 
L 410.889197 86.560768 
L 412.673574 97.542998 
L 414.45795 39.958125 
L 416.242327 69.817257 
L 418.026703 103.103662 
L 419.81108 89.500447 
L 419.81108 89.500447 
" clip-path="url(#p9e7352af25)" style="fill: none"/>
    <g clip-path="url(#p9e7352af25)">
     <use xlink:href="#m2c1abe2808" x="64.72017" y="379.440695" style="fill: #d62728; stroke: #d62728"/>
     <use xlink:href="#m2c1abe2808" x="66.504547" y="355.544613" style="fill: #d62728; stroke: #d62728"/>
     <use xlink:href="#m2c1abe2808" x="68.288923" y="381.575841" style="fill: #d62728; stroke: #d62728"/>
     <use xlink:href="#m2c1abe2808" x="70.0733" y="362.159276" style="fill: #d62728; stroke: #d62728"/>
     <use xlink:href="#m2c1abe2808" x="71.857676" y="353.787631" style="fill: #d62728; stroke: #d62728"/>
     <use xlink:href="#m2c1abe2808" x="73.642053" y="360.418671" style="fill: #d62728; stroke: #d62728"/>
     <use xlink:href="#m2c1abe2808" x="75.426429" y="368.220024" style="fill: #d62728; stroke: #d62728"/>
     <use xlink:href="#m2c1abe2808" x="77.210805" y="392.758125" style="fill: #d62728; stroke: #d62728"/>
     <use xlink:href="#m2c1abe2808" x="78.995182" y="369.013834" style="fill: #d62728; stroke: #d62728"/>
     <use xlink:href="#m2c1abe2808" x="80.779558" y="363.275159" style="fill: #d62728; stroke: #d62728"/>
     <use xlink:href="#m2c1abe2808" x="82.563935" y="352.438721" style="fill: #d62728; stroke: #d62728"/>
     <use xlink:href="#m2c1abe2808" x="84.348311" y="358.549653" style="fill: #d62728; stroke: #d62728"/>
     <use xlink:href="#m2c1abe2808" x="86.132688" y="338.172379" style="fill: #d62728; stroke: #d62728"/>
     <use xlink:href="#m2c1abe2808" x="87.917064" y="345.692467" style="fill: #d62728; stroke: #d62728"/>
     <use xlink:href="#m2c1abe2808" x="89.70144" y="362.018711" style="fill: #d62728; stroke: #d62728"/>
     <use xlink:href="#m2c1abe2808" x="91.485817" y="332.123017" style="fill: #d62728; stroke: #d62728"/>
     <use xlink:href="#m2c1abe2808" x="93.270193" y="385.189718" style="fill: #d62728; stroke: #d62728"/>
     <use xlink:href="#m2c1abe2808" x="95.05457" y="347.359023" style="fill: #d62728; stroke: #d62728"/>
     <use xlink:href="#m2c1abe2808" x="96.838946" y="366.250093" style="fill: #d62728; stroke: #d62728"/>
     <use xlink:href="#m2c1abe2808" x="98.623323" y="329.685418" style="fill: #d62728; stroke: #d62728"/>
     <use xlink:href="#m2c1abe2808" x="100.407699" y="339.651171" style="fill: #d62728; stroke: #d62728"/>
     <use xlink:href="#m2c1abe2808" x="102.192075" y="361.017188" style="fill: #d62728; stroke: #d62728"/>
     <use xlink:href="#m2c1abe2808" x="103.976452" y="345.592733" style="fill: #d62728; stroke: #d62728"/>
     <use xlink:href="#m2c1abe2808" x="105.760828" y="337.071535" style="fill: #d62728; stroke: #d62728"/>
     <use xlink:href="#m2c1abe2808" x="107.545205" y="369.594948" style="fill: #d62728; stroke: #d62728"/>
     <use xlink:href="#m2c1abe2808" x="109.329581" y="334.910115" style="fill: #d62728; stroke: #d62728"/>
     <use xlink:href="#m2c1abe2808" x="111.113958" y="331.423471" style="fill: #d62728; stroke: #d62728"/>
     <use xlink:href="#m2c1abe2808" x="112.898334" y="352.875994" style="fill: #d62728; stroke: #d62728"/>
     <use xlink:href="#m2c1abe2808" x="114.68271" y="342.657527" style="fill: #d62728; stroke: #d62728"/>
     <use xlink:href="#m2c1abe2808" x="116.467087" y="320.700495" style="fill: #d62728; stroke: #d62728"/>
     <use xlink:href="#m2c1abe2808" x="118.251463" y="341.679718" style="fill: #d62728; stroke: #d62728"/>
     <use xlink:href="#m2c1abe2808" x="120.03584" y="323.473776" style="fill: #d62728; stroke: #d62728"/>
     <use xlink:href="#m2c1abe2808" x="121.820216" y="324.057028" style="fill: #d62728; stroke: #d62728"/>
     <use xlink:href="#m2c1abe2808" x="123.604593" y="325.564474" style="fill: #d62728; stroke: #d62728"/>
     <use xlink:href="#m2c1abe2808" x="125.388969" y="337.644245" style="fill: #d62728; stroke: #d62728"/>
     <use xlink:href="#m2c1abe2808" x="127.173345" y="337.257186" style="fill: #d62728; stroke: #d62728"/>
     <use xlink:href="#m2c1abe2808" x="128.957722" y="315.864379" style="fill: #d62728; stroke: #d62728"/>
     <use xlink:href="#m2c1abe2808" x="130.742098" y="303.606922" style="fill: #d62728; stroke: #d62728"/>
     <use xlink:href="#m2c1abe2808" x="132.526475" y="313.663567" style="fill: #d62728; stroke: #d62728"/>
     <use xlink:href="#m2c1abe2808" x="134.310851" y="337.331291" style="fill: #d62728; stroke: #d62728"/>
     <use xlink:href="#m2c1abe2808" x="136.095228" y="332.860723" style="fill: #d62728; stroke: #d62728"/>
     <use xlink:href="#m2c1abe2808" x="137.879604" y="322.115423" style="fill: #d62728; stroke: #d62728"/>
     <use xlink:href="#m2c1abe2808" x="139.66398" y="317.425265" style="fill: #d62728; stroke: #d62728"/>
     <use xlink:href="#m2c1abe2808" x="141.448357" y="313.175997" style="fill: #d62728; stroke: #d62728"/>
     <use xlink:href="#m2c1abe2808" x="143.232733" y="290.499767" style="fill: #d62728; stroke: #d62728"/>
     <use xlink:href="#m2c1abe2808" x="145.01711" y="323.607197" style="fill: #d62728; stroke: #d62728"/>
     <use xlink:href="#m2c1abe2808" x="146.801486" y="315.06596" style="fill: #d62728; stroke: #d62728"/>
     <use xlink:href="#m2c1abe2808" x="148.585863" y="302.384532" style="fill: #d62728; stroke: #d62728"/>
     <use xlink:href="#m2c1abe2808" x="150.370239" y="303.657253" style="fill: #d62728; stroke: #d62728"/>
     <use xlink:href="#m2c1abe2808" x="152.154615" y="285.192126" style="fill: #d62728; stroke: #d62728"/>
     <use xlink:href="#m2c1abe2808" x="153.938992" y="302.428005" style="fill: #d62728; stroke: #d62728"/>
     <use xlink:href="#m2c1abe2808" x="155.723368" y="318.563867" style="fill: #d62728; stroke: #d62728"/>
     <use xlink:href="#m2c1abe2808" x="157.507745" y="282.988646" style="fill: #d62728; stroke: #d62728"/>
     <use xlink:href="#m2c1abe2808" x="159.292121" y="294.757293" style="fill: #d62728; stroke: #d62728"/>
     <use xlink:href="#m2c1abe2808" x="161.076498" y="301.125073" style="fill: #d62728; stroke: #d62728"/>
     <use xlink:href="#m2c1abe2808" x="162.860874" y="283.603954" style="fill: #d62728; stroke: #d62728"/>
     <use xlink:href="#m2c1abe2808" x="164.64525" y="281.052409" style="fill: #d62728; stroke: #d62728"/>
     <use xlink:href="#m2c1abe2808" x="166.429627" y="292.512766" style="fill: #d62728; stroke: #d62728"/>
     <use xlink:href="#m2c1abe2808" x="168.214003" y="308.954588" style="fill: #d62728; stroke: #d62728"/>
     <use xlink:href="#m2c1abe2808" x="169.99838" y="312.389488" style="fill: #d62728; stroke: #d62728"/>
     <use xlink:href="#m2c1abe2808" x="171.782756" y="269.423571" style="fill: #d62728; stroke: #d62728"/>
     <use xlink:href="#m2c1abe2808" x="173.567133" y="281.621087" style="fill: #d62728; stroke: #d62728"/>
     <use xlink:href="#m2c1abe2808" x="175.351509" y="281.998964" style="fill: #d62728; stroke: #d62728"/>
     <use xlink:href="#m2c1abe2808" x="177.135885" y="288.247908" style="fill: #d62728; stroke: #d62728"/>
     <use xlink:href="#m2c1abe2808" x="178.920262" y="275.047404" style="fill: #d62728; stroke: #d62728"/>
     <use xlink:href="#m2c1abe2808" x="180.704638" y="267.5266" style="fill: #d62728; stroke: #d62728"/>
     <use xlink:href="#m2c1abe2808" x="182.489015" y="273.676078" style="fill: #d62728; stroke: #d62728"/>
     <use xlink:href="#m2c1abe2808" x="184.273391" y="267.210289" style="fill: #d62728; stroke: #d62728"/>
     <use xlink:href="#m2c1abe2808" x="186.057768" y="277.001895" style="fill: #d62728; stroke: #d62728"/>
     <use xlink:href="#m2c1abe2808" x="187.842144" y="241.401568" style="fill: #d62728; stroke: #d62728"/>
     <use xlink:href="#m2c1abe2808" x="189.62652" y="272.492973" style="fill: #d62728; stroke: #d62728"/>
     <use xlink:href="#m2c1abe2808" x="191.410897" y="274.571144" style="fill: #d62728; stroke: #d62728"/>
     <use xlink:href="#m2c1abe2808" x="193.195273" y="262.447679" style="fill: #d62728; stroke: #d62728"/>
     <use xlink:href="#m2c1abe2808" x="194.97965" y="254.66404" style="fill: #d62728; stroke: #d62728"/>
     <use xlink:href="#m2c1abe2808" x="196.764026" y="271.596526" style="fill: #d62728; stroke: #d62728"/>
     <use xlink:href="#m2c1abe2808" x="198.548403" y="275.842121" style="fill: #d62728; stroke: #d62728"/>
     <use xlink:href="#m2c1abe2808" x="200.332779" y="232.762187" style="fill: #d62728; stroke: #d62728"/>
     <use xlink:href="#m2c1abe2808" x="202.117155" y="249.922173" style="fill: #d62728; stroke: #d62728"/>
     <use xlink:href="#m2c1abe2808" x="203.901532" y="260.705745" style="fill: #d62728; stroke: #d62728"/>
     <use xlink:href="#m2c1abe2808" x="205.685908" y="268.777917" style="fill: #d62728; stroke: #d62728"/>
     <use xlink:href="#m2c1abe2808" x="207.470285" y="254.290918" style="fill: #d62728; stroke: #d62728"/>
     <use xlink:href="#m2c1abe2808" x="209.254661" y="232.095288" style="fill: #d62728; stroke: #d62728"/>
     <use xlink:href="#m2c1abe2808" x="211.039038" y="266.698909" style="fill: #d62728; stroke: #d62728"/>
     <use xlink:href="#m2c1abe2808" x="212.823414" y="280.942048" style="fill: #d62728; stroke: #d62728"/>
     <use xlink:href="#m2c1abe2808" x="214.60779" y="219.399499" style="fill: #d62728; stroke: #d62728"/>
     <use xlink:href="#m2c1abe2808" x="216.392167" y="243.044435" style="fill: #d62728; stroke: #d62728"/>
     <use xlink:href="#m2c1abe2808" x="218.176543" y="260.093533" style="fill: #d62728; stroke: #d62728"/>
     <use xlink:href="#m2c1abe2808" x="219.96092" y="253.614157" style="fill: #d62728; stroke: #d62728"/>
     <use xlink:href="#m2c1abe2808" x="221.745296" y="238.621314" style="fill: #d62728; stroke: #d62728"/>
     <use xlink:href="#m2c1abe2808" x="223.529673" y="252.201162" style="fill: #d62728; stroke: #d62728"/>
     <use xlink:href="#m2c1abe2808" x="225.314049" y="242.841899" style="fill: #d62728; stroke: #d62728"/>
     <use xlink:href="#m2c1abe2808" x="227.098425" y="272.532108" style="fill: #d62728; stroke: #d62728"/>
     <use xlink:href="#m2c1abe2808" x="228.882802" y="257.461455" style="fill: #d62728; stroke: #d62728"/>
     <use xlink:href="#m2c1abe2808" x="230.667178" y="207.747867" style="fill: #d62728; stroke: #d62728"/>
     <use xlink:href="#m2c1abe2808" x="232.451555" y="230.967838" style="fill: #d62728; stroke: #d62728"/>
     <use xlink:href="#m2c1abe2808" x="234.235931" y="259.271269" style="fill: #d62728; stroke: #d62728"/>
     <use xlink:href="#m2c1abe2808" x="236.020308" y="209.641971" style="fill: #d62728; stroke: #d62728"/>
     <use xlink:href="#m2c1abe2808" x="237.804684" y="215.050495" style="fill: #d62728; stroke: #d62728"/>
     <use xlink:href="#m2c1abe2808" x="239.58906" y="229.460293" style="fill: #d62728; stroke: #d62728"/>
     <use xlink:href="#m2c1abe2808" x="241.373437" y="225.180934" style="fill: #d62728; stroke: #d62728"/>
     <use xlink:href="#m2c1abe2808" x="243.157813" y="238.085428" style="fill: #d62728; stroke: #d62728"/>
     <use xlink:href="#m2c1abe2808" x="244.94219" y="230.380618" style="fill: #d62728; stroke: #d62728"/>
     <use xlink:href="#m2c1abe2808" x="246.726566" y="221.022358" style="fill: #d62728; stroke: #d62728"/>
     <use xlink:href="#m2c1abe2808" x="248.510942" y="231.37274" style="fill: #d62728; stroke: #d62728"/>
     <use xlink:href="#m2c1abe2808" x="250.295319" y="212.545244" style="fill: #d62728; stroke: #d62728"/>
     <use xlink:href="#m2c1abe2808" x="252.079695" y="224.009713" style="fill: #d62728; stroke: #d62728"/>
     <use xlink:href="#m2c1abe2808" x="253.864072" y="217.582397" style="fill: #d62728; stroke: #d62728"/>
     <use xlink:href="#m2c1abe2808" x="255.648448" y="215.785329" style="fill: #d62728; stroke: #d62728"/>
     <use xlink:href="#m2c1abe2808" x="257.432825" y="219.091406" style="fill: #d62728; stroke: #d62728"/>
     <use xlink:href="#m2c1abe2808" x="259.217201" y="233.180659" style="fill: #d62728; stroke: #d62728"/>
     <use xlink:href="#m2c1abe2808" x="261.001577" y="221.604894" style="fill: #d62728; stroke: #d62728"/>
     <use xlink:href="#m2c1abe2808" x="262.785954" y="215.687592" style="fill: #d62728; stroke: #d62728"/>
     <use xlink:href="#m2c1abe2808" x="264.57033" y="213.982346" style="fill: #d62728; stroke: #d62728"/>
     <use xlink:href="#m2c1abe2808" x="266.354707" y="172.09903" style="fill: #d62728; stroke: #d62728"/>
     <use xlink:href="#m2c1abe2808" x="268.139083" y="220.50423" style="fill: #d62728; stroke: #d62728"/>
     <use xlink:href="#m2c1abe2808" x="269.92346" y="216.003764" style="fill: #d62728; stroke: #d62728"/>
     <use xlink:href="#m2c1abe2808" x="271.707836" y="193.034592" style="fill: #d62728; stroke: #d62728"/>
     <use xlink:href="#m2c1abe2808" x="273.492212" y="210.359006" style="fill: #d62728; stroke: #d62728"/>
     <use xlink:href="#m2c1abe2808" x="275.276589" y="188.154697" style="fill: #d62728; stroke: #d62728"/>
     <use xlink:href="#m2c1abe2808" x="277.060965" y="225.901921" style="fill: #d62728; stroke: #d62728"/>
     <use xlink:href="#m2c1abe2808" x="278.845342" y="199.348852" style="fill: #d62728; stroke: #d62728"/>
     <use xlink:href="#m2c1abe2808" x="280.629718" y="208.26627" style="fill: #d62728; stroke: #d62728"/>
     <use xlink:href="#m2c1abe2808" x="282.414095" y="211.892218" style="fill: #d62728; stroke: #d62728"/>
     <use xlink:href="#m2c1abe2808" x="284.198471" y="181.620741" style="fill: #d62728; stroke: #d62728"/>
     <use xlink:href="#m2c1abe2808" x="285.982847" y="209.022901" style="fill: #d62728; stroke: #d62728"/>
     <use xlink:href="#m2c1abe2808" x="287.767224" y="186.755863" style="fill: #d62728; stroke: #d62728"/>
     <use xlink:href="#m2c1abe2808" x="289.5516" y="210.780138" style="fill: #d62728; stroke: #d62728"/>
     <use xlink:href="#m2c1abe2808" x="291.335977" y="180.879364" style="fill: #d62728; stroke: #d62728"/>
     <use xlink:href="#m2c1abe2808" x="293.120353" y="188.733481" style="fill: #d62728; stroke: #d62728"/>
     <use xlink:href="#m2c1abe2808" x="294.90473" y="207.677259" style="fill: #d62728; stroke: #d62728"/>
     <use xlink:href="#m2c1abe2808" x="296.689106" y="207.020159" style="fill: #d62728; stroke: #d62728"/>
     <use xlink:href="#m2c1abe2808" x="298.473482" y="186.481267" style="fill: #d62728; stroke: #d62728"/>
     <use xlink:href="#m2c1abe2808" x="300.257859" y="181.368971" style="fill: #d62728; stroke: #d62728"/>
     <use xlink:href="#m2c1abe2808" x="302.042235" y="176.819451" style="fill: #d62728; stroke: #d62728"/>
     <use xlink:href="#m2c1abe2808" x="303.826612" y="147.301873" style="fill: #d62728; stroke: #d62728"/>
     <use xlink:href="#m2c1abe2808" x="305.610988" y="159.808036" style="fill: #d62728; stroke: #d62728"/>
     <use xlink:href="#m2c1abe2808" x="307.395365" y="164.963435" style="fill: #d62728; stroke: #d62728"/>
     <use xlink:href="#m2c1abe2808" x="309.179741" y="196.358691" style="fill: #d62728; stroke: #d62728"/>
     <use xlink:href="#m2c1abe2808" x="310.964117" y="165.060301" style="fill: #d62728; stroke: #d62728"/>
     <use xlink:href="#m2c1abe2808" x="312.748494" y="168.183814" style="fill: #d62728; stroke: #d62728"/>
     <use xlink:href="#m2c1abe2808" x="314.53287" y="132.827549" style="fill: #d62728; stroke: #d62728"/>
     <use xlink:href="#m2c1abe2808" x="316.317247" y="151.59848" style="fill: #d62728; stroke: #d62728"/>
     <use xlink:href="#m2c1abe2808" x="318.101623" y="159.26367" style="fill: #d62728; stroke: #d62728"/>
     <use xlink:href="#m2c1abe2808" x="319.886" y="156.538919" style="fill: #d62728; stroke: #d62728"/>
     <use xlink:href="#m2c1abe2808" x="321.670376" y="177.792435" style="fill: #d62728; stroke: #d62728"/>
     <use xlink:href="#m2c1abe2808" x="323.454752" y="148.836756" style="fill: #d62728; stroke: #d62728"/>
     <use xlink:href="#m2c1abe2808" x="325.239129" y="173.168825" style="fill: #d62728; stroke: #d62728"/>
     <use xlink:href="#m2c1abe2808" x="327.023505" y="154.34394" style="fill: #d62728; stroke: #d62728"/>
     <use xlink:href="#m2c1abe2808" x="328.807882" y="165.935268" style="fill: #d62728; stroke: #d62728"/>
     <use xlink:href="#m2c1abe2808" x="330.592258" y="155.326849" style="fill: #d62728; stroke: #d62728"/>
     <use xlink:href="#m2c1abe2808" x="332.376635" y="169.554869" style="fill: #d62728; stroke: #d62728"/>
     <use xlink:href="#m2c1abe2808" x="334.161011" y="160.101511" style="fill: #d62728; stroke: #d62728"/>
     <use xlink:href="#m2c1abe2808" x="335.945387" y="152.034885" style="fill: #d62728; stroke: #d62728"/>
     <use xlink:href="#m2c1abe2808" x="337.729764" y="169.770333" style="fill: #d62728; stroke: #d62728"/>
     <use xlink:href="#m2c1abe2808" x="339.51414" y="119.699362" style="fill: #d62728; stroke: #d62728"/>
     <use xlink:href="#m2c1abe2808" x="341.298517" y="164.401055" style="fill: #d62728; stroke: #d62728"/>
     <use xlink:href="#m2c1abe2808" x="343.082893" y="130.54632" style="fill: #d62728; stroke: #d62728"/>
     <use xlink:href="#m2c1abe2808" x="344.86727" y="142.027254" style="fill: #d62728; stroke: #d62728"/>
     <use xlink:href="#m2c1abe2808" x="346.651646" y="141.403189" style="fill: #d62728; stroke: #d62728"/>
     <use xlink:href="#m2c1abe2808" x="348.436022" y="136.208457" style="fill: #d62728; stroke: #d62728"/>
     <use xlink:href="#m2c1abe2808" x="350.220399" y="145.585703" style="fill: #d62728; stroke: #d62728"/>
     <use xlink:href="#m2c1abe2808" x="352.004775" y="130.969856" style="fill: #d62728; stroke: #d62728"/>
     <use xlink:href="#m2c1abe2808" x="353.789152" y="150.00379" style="fill: #d62728; stroke: #d62728"/>
     <use xlink:href="#m2c1abe2808" x="355.573528" y="145.356706" style="fill: #d62728; stroke: #d62728"/>
     <use xlink:href="#m2c1abe2808" x="357.357905" y="147.492725" style="fill: #d62728; stroke: #d62728"/>
     <use xlink:href="#m2c1abe2808" x="359.142281" y="111.703234" style="fill: #d62728; stroke: #d62728"/>
     <use xlink:href="#m2c1abe2808" x="360.926657" y="129.404785" style="fill: #d62728; stroke: #d62728"/>
     <use xlink:href="#m2c1abe2808" x="362.711034" y="133.170363" style="fill: #d62728; stroke: #d62728"/>
     <use xlink:href="#m2c1abe2808" x="364.49541" y="138.303624" style="fill: #d62728; stroke: #d62728"/>
     <use xlink:href="#m2c1abe2808" x="366.279787" y="125.778949" style="fill: #d62728; stroke: #d62728"/>
     <use xlink:href="#m2c1abe2808" x="368.064163" y="136.516917" style="fill: #d62728; stroke: #d62728"/>
     <use xlink:href="#m2c1abe2808" x="369.84854" y="146.702789" style="fill: #d62728; stroke: #d62728"/>
     <use xlink:href="#m2c1abe2808" x="371.632916" y="121.501587" style="fill: #d62728; stroke: #d62728"/>
     <use xlink:href="#m2c1abe2808" x="373.417292" y="118.760366" style="fill: #d62728; stroke: #d62728"/>
     <use xlink:href="#m2c1abe2808" x="375.201669" y="112.018656" style="fill: #d62728; stroke: #d62728"/>
     <use xlink:href="#m2c1abe2808" x="376.986045" y="120.647831" style="fill: #d62728; stroke: #d62728"/>
     <use xlink:href="#m2c1abe2808" x="378.770422" y="99.664031" style="fill: #d62728; stroke: #d62728"/>
     <use xlink:href="#m2c1abe2808" x="380.554798" y="89.987356" style="fill: #d62728; stroke: #d62728"/>
     <use xlink:href="#m2c1abe2808" x="382.339175" y="140.296104" style="fill: #d62728; stroke: #d62728"/>
     <use xlink:href="#m2c1abe2808" x="384.123551" y="92.818305" style="fill: #d62728; stroke: #d62728"/>
     <use xlink:href="#m2c1abe2808" x="385.907927" y="120.033284" style="fill: #d62728; stroke: #d62728"/>
     <use xlink:href="#m2c1abe2808" x="387.692304" y="138.362766" style="fill: #d62728; stroke: #d62728"/>
     <use xlink:href="#m2c1abe2808" x="389.47668" y="98.227617" style="fill: #d62728; stroke: #d62728"/>
     <use xlink:href="#m2c1abe2808" x="391.261057" y="90.157288" style="fill: #d62728; stroke: #d62728"/>
     <use xlink:href="#m2c1abe2808" x="393.045433" y="97.775994" style="fill: #d62728; stroke: #d62728"/>
     <use xlink:href="#m2c1abe2808" x="394.82981" y="78.995079" style="fill: #d62728; stroke: #d62728"/>
     <use xlink:href="#m2c1abe2808" x="396.614186" y="138.38015" style="fill: #d62728; stroke: #d62728"/>
     <use xlink:href="#m2c1abe2808" x="398.398562" y="132.69527" style="fill: #d62728; stroke: #d62728"/>
     <use xlink:href="#m2c1abe2808" x="400.182939" y="119.858048" style="fill: #d62728; stroke: #d62728"/>
     <use xlink:href="#m2c1abe2808" x="401.967315" y="98.33807" style="fill: #d62728; stroke: #d62728"/>
     <use xlink:href="#m2c1abe2808" x="403.751692" y="111.315698" style="fill: #d62728; stroke: #d62728"/>
     <use xlink:href="#m2c1abe2808" x="405.536068" y="113.252599" style="fill: #d62728; stroke: #d62728"/>
     <use xlink:href="#m2c1abe2808" x="407.320445" y="77.173236" style="fill: #d62728; stroke: #d62728"/>
     <use xlink:href="#m2c1abe2808" x="409.104821" y="77.104653" style="fill: #d62728; stroke: #d62728"/>
     <use xlink:href="#m2c1abe2808" x="410.889197" y="86.560768" style="fill: #d62728; stroke: #d62728"/>
     <use xlink:href="#m2c1abe2808" x="412.673574" y="97.542998" style="fill: #d62728; stroke: #d62728"/>
     <use xlink:href="#m2c1abe2808" x="414.45795" y="39.958125" style="fill: #d62728; stroke: #d62728"/>
     <use xlink:href="#m2c1abe2808" x="416.242327" y="69.817257" style="fill: #d62728; stroke: #d62728"/>
     <use xlink:href="#m2c1abe2808" x="418.026703" y="103.103662" style="fill: #d62728; stroke: #d62728"/>
     <use xlink:href="#m2c1abe2808" x="419.81108" y="89.500447" style="fill: #d62728; stroke: #d62728"/>
    </g>
   </g>
   <g id="line2d_84">
    <path d="M 64.72017 375.055261 
L 419.81108 83.117207 
L 419.81108 83.117207 
" clip-path="url(#p9e7352af25)" style="fill: none; stroke: #e377c2; stroke-width: 0.8; stroke-linecap: square"/>
   </g>
  </g>
 </g>
 <defs>
  <clipPath id="p9e7352af25">
   <rect x="46.965625" y="22.318125" width="390.6" height="388.08"/>
  </clipPath>
 </defs>
</svg>