<?xml version="1.0" encoding="utf-8" standalone="no"?>
<!DOCTYPE svg PUBLIC "-//W3C//DTD SVG 1.1//EN"
  "http://www.w3.org/Graphics/SVG/1.1/DTD/svg11.dtd">
<svg xmlns:xlink="http://www.w3.org/1999/xlink" width="1288.860625pt" height="569.3825pt" viewBox="0 0 1288.860625 569.3825" xmlns="http://www.w3.org/2000/svg" version="1.1">
 <metadata>
  <rdf:RDF xmlns:dc="http://purl.org/dc/elements/1.1/" xmlns:cc="http://creativecommons.org/ns#" xmlns:rdf="http://www.w3.org/1999/02/22-rdf-syntax-ns#">
   <cc:Work>
    <dc:type rdf:resource="http://purl.org/dc/dcmitype/StillImage"/>
    <dc:date>2024-08-14T08:21:00.897979</dc:date>
    <dc:format>image/svg+xml</dc:format>
    <dc:creator>
     <cc:Agent>
      <dc:title>Matplotlib v3.9.2, https://matplotlib.org/</dc:title>
     </cc:Agent>
    </dc:creator>
   </cc:Work>
  </rdf:RDF>
 </metadata>
 <defs>
  <style type="text/css">*{stroke-linejoin: round; stroke-linecap: butt}</style>
 </defs>
 <g id="figure_1">
  <g id="patch_1">
   <path d="M 0 569.3825 
L 1288.860625 569.3825 
L 1288.860625 0 
L 0 0 
z
" style="fill: #ffffff"/>
  </g>
  <g id="axes_1">
   <g id="patch_2">
    <path d="M 45.800625 518.276875 
L 626.280625 518.276875 
L 626.280625 28.396875 
L 45.800625 28.396875 
z
" style="fill: #ffffff"/>
   </g>
   <g id="PolyCollection_1">
    <defs>
     <path id="m9892e7f303" d="M 309.36464 -316.948753 
L 309.36464 -73.372898 
L 309.892877 -73.372898 
L 310.421115 -73.372898 
L 310.949352 -73.372898 
L 311.477589 -73.372898 
L 312.005827 -73.372898 
L 312.534064 -73.372898 
L 313.062301 -73.372898 
L 313.590539 -73.372898 
L 314.118776 -73.372898 
L 314.647013 -73.372898 
L 315.175251 -73.372898 
L 315.703488 -73.372898 
L 316.231725 -73.372898 
L 316.759963 -73.372898 
L 317.2882 -73.372898 
L 317.816437 -73.372898 
L 318.344675 -73.372898 
L 318.872912 -73.372898 
L 319.401149 -73.372898 
L 319.929386 -73.372898 
L 320.457624 -73.372898 
L 320.985861 -73.372898 
L 321.514098 -73.372898 
L 322.042336 -73.372898 
L 322.570573 -73.372898 
L 323.09881 -73.372898 
L 323.627048 -73.372898 
L 324.155285 -73.372898 
L 324.683522 -73.372898 
L 325.21176 -73.372898 
L 325.739997 -73.372898 
L 326.268234 -73.372898 
L 326.796472 -73.372898 
L 327.324709 -73.372898 
L 327.852946 -73.372898 
L 328.381184 -73.372898 
L 328.909421 -73.372898 
L 329.437658 -73.372898 
L 329.965896 -73.372898 
L 330.494133 -73.372898 
L 331.02237 -73.372898 
L 331.550608 -73.372898 
L 332.078845 -73.372898 
L 332.607082 -73.372898 
L 333.13532 -73.372898 
L 333.663557 -73.372898 
L 334.191794 -73.372898 
L 334.720032 -73.372898 
L 335.248269 -73.372898 
L 335.776506 -73.372898 
L 336.304744 -73.372898 
L 336.832981 -73.372898 
L 337.361218 -73.372898 
L 337.889456 -73.372898 
L 338.417693 -73.372898 
L 338.94593 -73.372898 
L 339.474168 -73.372898 
L 340.002405 -73.372898 
L 340.530642 -73.372898 
L 341.05888 -73.372898 
L 341.587117 -73.372898 
L 342.115354 -73.372898 
L 342.643592 -73.372898 
L 343.171829 -73.372898 
L 343.700066 -73.372898 
L 344.228304 -73.372898 
L 344.756541 -73.372898 
L 345.284778 -73.372898 
L 345.813016 -73.372898 
L 346.341253 -73.372898 
L 346.86949 -73.372898 
L 347.397728 -73.372898 
L 347.925965 -73.372898 
L 348.454202 -73.372898 
L 348.98244 -73.372898 
L 349.510677 -73.372898 
L 350.038914 -73.372898 
L 350.567152 -73.372898 
L 351.095389 -73.372898 
L 351.623626 -73.372898 
L 352.151864 -73.372898 
L 352.680101 -73.372898 
L 353.208338 -73.372898 
L 353.736575 -73.372898 
L 354.264813 -73.372898 
L 354.79305 -73.372898 
L 355.321287 -73.372898 
L 355.849525 -73.372898 
L 356.377762 -73.372898 
L 356.905999 -73.372898 
L 357.434237 -73.372898 
L 357.962474 -73.372898 
L 358.490711 -73.372898 
L 359.018949 -73.372898 
L 359.547186 -73.372898 
L 360.075423 -73.372898 
L 360.603661 -73.372898 
L 361.131898 -73.372898 
L 361.660135 -73.372898 
L 362.188373 -73.372898 
L 362.71661 -73.372898 
L 362.71661 -120.332768 
L 362.71661 -120.332768 
L 362.188373 -123.592569 
L 361.660135 -127.024102 
L 361.131898 -130.63189 
L 360.603661 -134.420211 
L 360.075423 -138.393058 
L 359.547186 -142.554106 
L 359.018949 -146.906676 
L 358.490711 -151.453695 
L 357.962474 -156.197665 
L 357.434237 -161.140622 
L 356.905999 -166.2841 
L 356.377762 -171.629093 
L 355.849525 -177.176025 
L 355.321287 -182.924707 
L 354.79305 -188.874311 
L 354.264813 -195.023334 
L 353.736575 -201.369566 
L 353.208338 -207.910068 
L 352.680101 -214.641139 
L 352.151864 -221.558297 
L 351.623626 -228.656257 
L 351.095389 -235.928913 
L 350.567152 -243.369327 
L 350.038914 -250.969716 
L 349.510677 -258.721446 
L 348.98244 -266.615031 
L 348.454202 -274.640133 
L 347.925965 -282.785574 
L 347.397728 -291.039341 
L 346.86949 -299.388603 
L 346.341253 -307.819738 
L 345.813016 -316.318351 
L 345.284778 -324.869309 
L 344.756541 -333.456778 
L 344.228304 -342.064261 
L 343.700066 -350.674643 
L 343.171829 -359.270245 
L 342.643592 -367.832875 
L 342.115354 -376.34389 
L 341.587117 -384.784257 
L 341.05888 -393.134623 
L 340.530642 -401.375382 
L 340.002405 -409.486751 
L 339.474168 -417.448849 
L 338.94593 -425.241773 
L 338.417693 -432.845679 
L 337.889456 -440.240868 
L 337.361218 -447.407868 
L 336.832981 -454.327519 
L 336.304744 -460.981057 
L 335.776506 -467.350199 
L 335.248269 -473.417227 
L 334.720032 -479.165066 
L 334.191794 -484.577371 
L 333.663557 -489.638597 
L 333.13532 -494.334078 
L 332.607082 -498.650094 
L 332.078845 -502.573943 
L 331.550608 -506.093997 
L 331.02237 -509.199764 
L 330.494133 -511.881939 
L 329.965896 -514.132448 
L 329.437658 -515.944494 
L 328.909421 -517.312583 
L 328.381184 -518.23256 
L 327.852946 -518.701627 
L 327.324709 -518.718352 
L 326.796472 -518.282687 
L 326.268234 -517.395957 
L 325.739997 -516.060862 
L 325.21176 -514.281458 
L 324.683522 -512.063139 
L 324.155285 -509.412608 
L 323.627048 -506.337845 
L 323.09881 -502.848066 
L 322.570573 -498.953677 
L 322.042336 -494.666224 
L 321.514098 -489.998332 
L 320.985861 -484.963648 
L 320.457624 -479.57677 
L 319.929386 -473.853179 
L 319.401149 -467.809168 
L 318.872912 -461.461756 
L 318.344675 -454.828618 
L 317.816437 -447.927999 
L 317.2882 -440.778629 
L 316.759963 -433.399642 
L 316.231725 -425.810491 
L 315.703488 -418.03086 
L 315.175251 -410.080584 
L 314.647013 -401.979566 
L 314.118776 -393.747692 
L 313.590539 -385.404754 
L 313.062301 -376.970373 
L 312.534064 -368.463924 
L 312.005827 -359.904465 
L 311.477589 -351.310672 
L 310.949352 -342.700771 
L 310.421115 -334.092481 
L 309.892877 -325.50296 
L 309.36464 -316.948753 
z
" style="stroke: #808080; stroke-opacity: 0.3"/>
    </defs>
    <g clip-path="url(#p676bc79921)">
     <use xlink:href="#m9892e7f303" x="0" y="569.3825" style="fill: #808080; fill-opacity: 0.3; stroke: #808080; stroke-opacity: 0.3"/>
    </g>
   </g>
   <g id="matplotlib.axis_1">
    <g id="xtick_1">
     <g id="line2d_1">
      <defs>
       <path id="m4250674514" d="M 0 0 
L 0 3.5 
" style="stroke: #000000; stroke-width: 0.8"/>
      </defs>
      <g>
       <use xlink:href="#m4250674514" x="124.956989" y="518.276875" style="stroke: #000000; stroke-width: 0.8"/>
      </g>
     </g>
     <g id="text_1">
      <!-- −2 -->
      <g transform="translate(113.163239 537.434375) scale(0.16 -0.16)">
       <defs>
        <path id="DejaVuSans-2212" d="M 678 2272 
L 4684 2272 
L 4684 1741 
L 678 1741 
L 678 2272 
z
" transform="scale(0.015625)"/>
        <path id="DejaVuSans-32" d="M 1228 531 
L 3431 531 
L 3431 0 
L 469 0 
L 469 531 
Q 828 903 1448 1529 
Q 2069 2156 2228 2338 
Q 2531 2678 2651 2914 
Q 2772 3150 2772 3378 
Q 2772 3750 2511 3984 
Q 2250 4219 1831 4219 
Q 1534 4219 1204 4116 
Q 875 4013 500 3803 
L 500 4441 
Q 881 4594 1212 4672 
Q 1544 4750 1819 4750 
Q 2544 4750 2975 4387 
Q 3406 4025 3406 3419 
Q 3406 3131 3298 2873 
Q 3191 2616 2906 2266 
Q 2828 2175 2409 1742 
Q 1991 1309 1228 531 
z
" transform="scale(0.015625)"/>
       </defs>
       <use xlink:href="#DejaVuSans-2212"/>
       <use xlink:href="#DejaVuSans-32" x="83.789062"/>
      </g>
     </g>
    </g>
    <g id="xtick_2">
     <g id="line2d_2">
      <g>
       <use xlink:href="#m4250674514" x="230.498807" y="518.276875" style="stroke: #000000; stroke-width: 0.8"/>
      </g>
     </g>
     <g id="text_2">
      <!-- 0 -->
      <g transform="translate(225.408807 537.434375) scale(0.16 -0.16)">
       <defs>
        <path id="DejaVuSans-30" d="M 2034 4250 
Q 1547 4250 1301 3770 
Q 1056 3291 1056 2328 
Q 1056 1369 1301 889 
Q 1547 409 2034 409 
Q 2525 409 2770 889 
Q 3016 1369 3016 2328 
Q 3016 3291 2770 3770 
Q 2525 4250 2034 4250 
z
M 2034 4750 
Q 2819 4750 3233 4129 
Q 3647 3509 3647 2328 
Q 3647 1150 3233 529 
Q 2819 -91 2034 -91 
Q 1250 -91 836 529 
Q 422 1150 422 2328 
Q 422 3509 836 4129 
Q 1250 4750 2034 4750 
z
" transform="scale(0.015625)"/>
       </defs>
       <use xlink:href="#DejaVuSans-30"/>
      </g>
     </g>
    </g>
    <g id="xtick_3">
     <g id="line2d_3">
      <g>
       <use xlink:href="#m4250674514" x="336.040625" y="518.276875" style="stroke: #000000; stroke-width: 0.8"/>
      </g>
     </g>
     <g id="text_3">
      <!-- 2 -->
      <g transform="translate(330.950625 537.434375) scale(0.16 -0.16)">
       <use xlink:href="#DejaVuSans-32"/>
      </g>
     </g>
    </g>
    <g id="xtick_4">
     <g id="line2d_4">
      <g>
       <use xlink:href="#m4250674514" x="441.582443" y="518.276875" style="stroke: #000000; stroke-width: 0.8"/>
      </g>
     </g>
     <g id="text_4">
      <!-- 4 -->
      <g transform="translate(436.492443 537.434375) scale(0.16 -0.16)">
       <defs>
        <path id="DejaVuSans-34" d="M 2419 4116 
L 825 1625 
L 2419 1625 
L 2419 4116 
z
M 2253 4666 
L 3047 4666 
L 3047 1625 
L 3713 1625 
L 3713 1100 
L 3047 1100 
L 3047 0 
L 2419 0 
L 2419 1100 
L 313 1100 
L 313 1709 
L 2253 4666 
z
" transform="scale(0.015625)"/>
       </defs>
       <use xlink:href="#DejaVuSans-34"/>
      </g>
     </g>
    </g>
    <g id="xtick_5">
     <g id="line2d_5">
      <g>
       <use xlink:href="#m4250674514" x="547.124261" y="518.276875" style="stroke: #000000; stroke-width: 0.8"/>
      </g>
     </g>
     <g id="text_5">
      <!-- 6 -->
      <g transform="translate(542.034261 537.434375) scale(0.16 -0.16)">
       <defs>
        <path id="DejaVuSans-36" d="M 2113 2584 
Q 1688 2584 1439 2293 
Q 1191 2003 1191 1497 
Q 1191 994 1439 701 
Q 1688 409 2113 409 
Q 2538 409 2786 701 
Q 3034 994 3034 1497 
Q 3034 2003 2786 2293 
Q 2538 2584 2113 2584 
z
M 3366 4563 
L 3366 3988 
Q 3128 4100 2886 4159 
Q 2644 4219 2406 4219 
Q 1781 4219 1451 3797 
Q 1122 3375 1075 2522 
Q 1259 2794 1537 2939 
Q 1816 3084 2150 3084 
Q 2853 3084 3261 2657 
Q 3669 2231 3669 1497 
Q 3669 778 3244 343 
Q 2819 -91 2113 -91 
Q 1303 -91 875 529 
Q 447 1150 447 2328 
Q 447 3434 972 4092 
Q 1497 4750 2381 4750 
Q 2619 4750 2861 4703 
Q 3103 4656 3366 4563 
z
" transform="scale(0.015625)"/>
       </defs>
       <use xlink:href="#DejaVuSans-36"/>
      </g>
     </g>
    </g>
    <g id="text_6">
     <!-- Mu -->
     <g transform="translate(322.571563 558.439062) scale(0.18 -0.18)">
      <defs>
       <path id="DejaVuSans-4d" d="M 628 4666 
L 1569 4666 
L 2759 1491 
L 3956 4666 
L 4897 4666 
L 4897 0 
L 4281 0 
L 4281 4097 
L 3078 897 
L 2444 897 
L 1241 4097 
L 1241 0 
L 628 0 
L 628 4666 
z
" transform="scale(0.015625)"/>
       <path id="DejaVuSans-75" d="M 544 1381 
L 544 3500 
L 1119 3500 
L 1119 1403 
Q 1119 906 1312 657 
Q 1506 409 1894 409 
Q 2359 409 2629 706 
Q 2900 1003 2900 1516 
L 2900 3500 
L 3475 3500 
L 3475 0 
L 2900 0 
L 2900 538 
Q 2691 219 2414 64 
Q 2138 -91 1772 -91 
Q 1169 -91 856 284 
Q 544 659 544 1381 
z
M 1991 3584 
L 1991 3584 
z
" transform="scale(0.015625)"/>
      </defs>
      <use xlink:href="#DejaVuSans-4d"/>
      <use xlink:href="#DejaVuSans-75" x="86.279297"/>
     </g>
    </g>
   </g>
   <g id="matplotlib.axis_2">
    <g id="ytick_1">
     <g id="line2d_6">
      <defs>
       <path id="mdc8d9d14b5" d="M 0 0 
L -3.5 0 
" style="stroke: #000000; stroke-width: 0.8"/>
      </defs>
      <g>
       <use xlink:href="#mdc8d9d14b5" x="45.800625" y="496.009602" style="stroke: #000000; stroke-width: 0.8"/>
      </g>
     </g>
     <g id="text_7">
      <!-- 0 -->
      <g transform="translate(28.620625 502.088352) scale(0.16 -0.16)">
       <use xlink:href="#DejaVuSans-30"/>
      </g>
     </g>
    </g>
    <g id="ytick_2">
     <g id="line2d_7">
      <g>
       <use xlink:href="#mdc8d9d14b5" x="45.800625" y="435.705008" style="stroke: #000000; stroke-width: 0.8"/>
      </g>
     </g>
     <g id="text_8">
      <!-- 1 -->
      <g transform="translate(28.620625 441.783758) scale(0.16 -0.16)">
       <defs>
        <path id="DejaVuSans-31" d="M 794 531 
L 1825 531 
L 1825 4091 
L 703 3866 
L 703 4441 
L 1819 4666 
L 2450 4666 
L 2450 531 
L 3481 531 
L 3481 0 
L 794 0 
L 794 531 
z
" transform="scale(0.015625)"/>
       </defs>
       <use xlink:href="#DejaVuSans-31"/>
      </g>
     </g>
    </g>
    <g id="ytick_3">
     <g id="line2d_8">
      <g>
       <use xlink:href="#mdc8d9d14b5" x="45.800625" y="375.400415" style="stroke: #000000; stroke-width: 0.8"/>
      </g>
     </g>
     <g id="text_9">
      <!-- 2 -->
      <g transform="translate(28.620625 381.479165) scale(0.16 -0.16)">
       <use xlink:href="#DejaVuSans-32"/>
      </g>
     </g>
    </g>
    <g id="ytick_4">
     <g id="line2d_9">
      <g>
       <use xlink:href="#mdc8d9d14b5" x="45.800625" y="315.095821" style="stroke: #000000; stroke-width: 0.8"/>
      </g>
     </g>
     <g id="text_10">
      <!-- 3 -->
      <g transform="translate(28.620625 321.174571) scale(0.16 -0.16)">
       <defs>
        <path id="DejaVuSans-33" d="M 2597 2516 
Q 3050 2419 3304 2112 
Q 3559 1806 3559 1356 
Q 3559 666 3084 287 
Q 2609 -91 1734 -91 
Q 1441 -91 1130 -33 
Q 819 25 488 141 
L 488 750 
Q 750 597 1062 519 
Q 1375 441 1716 441 
Q 2309 441 2620 675 
Q 2931 909 2931 1356 
Q 2931 1769 2642 2001 
Q 2353 2234 1838 2234 
L 1294 2234 
L 1294 2753 
L 1863 2753 
Q 2328 2753 2575 2939 
Q 2822 3125 2822 3475 
Q 2822 3834 2567 4026 
Q 2313 4219 1838 4219 
Q 1578 4219 1281 4162 
Q 984 4106 628 3988 
L 628 4550 
Q 988 4650 1302 4700 
Q 1616 4750 1894 4750 
Q 2613 4750 3031 4423 
Q 3450 4097 3450 3541 
Q 3450 3153 3228 2886 
Q 3006 2619 2597 2516 
z
" transform="scale(0.015625)"/>
       </defs>
       <use xlink:href="#DejaVuSans-33"/>
      </g>
     </g>
    </g>
    <g id="ytick_5">
     <g id="line2d_10">
      <g>
       <use xlink:href="#mdc8d9d14b5" x="45.800625" y="254.791227" style="stroke: #000000; stroke-width: 0.8"/>
      </g>
     </g>
     <g id="text_11">
      <!-- 4 -->
      <g transform="translate(28.620625 260.869977) scale(0.16 -0.16)">
       <use xlink:href="#DejaVuSans-34"/>
      </g>
     </g>
    </g>
    <g id="ytick_6">
     <g id="line2d_11">
      <g>
       <use xlink:href="#mdc8d9d14b5" x="45.800625" y="194.486633" style="stroke: #000000; stroke-width: 0.8"/>
      </g>
     </g>
     <g id="text_12">
      <!-- 5 -->
      <g transform="translate(28.620625 200.565383) scale(0.16 -0.16)">
       <defs>
        <path id="DejaVuSans-35" d="M 691 4666 
L 3169 4666 
L 3169 4134 
L 1269 4134 
L 1269 2991 
Q 1406 3038 1543 3061 
Q 1681 3084 1819 3084 
Q 2600 3084 3056 2656 
Q 3513 2228 3513 1497 
Q 3513 744 3044 326 
Q 2575 -91 1722 -91 
Q 1428 -91 1123 -41 
Q 819 9 494 109 
L 494 744 
Q 775 591 1075 516 
Q 1375 441 1709 441 
Q 2250 441 2565 725 
Q 2881 1009 2881 1497 
Q 2881 1984 2565 2268 
Q 2250 2553 1709 2553 
Q 1456 2553 1204 2497 
Q 953 2441 691 2322 
L 691 4666 
z
" transform="scale(0.015625)"/>
       </defs>
       <use xlink:href="#DejaVuSans-35"/>
      </g>
     </g>
    </g>
    <g id="ytick_7">
     <g id="line2d_12">
      <g>
       <use xlink:href="#mdc8d9d14b5" x="45.800625" y="134.182039" style="stroke: #000000; stroke-width: 0.8"/>
      </g>
     </g>
     <g id="text_13">
      <!-- 6 -->
      <g transform="translate(28.620625 140.260789) scale(0.16 -0.16)">
       <use xlink:href="#DejaVuSans-36"/>
      </g>
     </g>
    </g>
    <g id="ytick_8">
     <g id="line2d_13">
      <g>
       <use xlink:href="#mdc8d9d14b5" x="45.800625" y="73.877445" style="stroke: #000000; stroke-width: 0.8"/>
      </g>
     </g>
     <g id="text_14">
      <!-- 7 -->
      <g transform="translate(28.620625 79.956195) scale(0.16 -0.16)">
       <defs>
        <path id="DejaVuSans-37" d="M 525 4666 
L 3525 4666 
L 3525 4397 
L 1831 0 
L 1172 0 
L 2766 4134 
L 525 4134 
L 525 4666 
z
" transform="scale(0.015625)"/>
       </defs>
       <use xlink:href="#DejaVuSans-37"/>
      </g>
     </g>
    </g>
    <g id="text_15">
     <!-- Likelihood -->
     <g transform="translate(20.877188 318.706719) rotate(-90) scale(0.18 -0.18)">
      <defs>
       <path id="DejaVuSans-4c" d="M 628 4666 
L 1259 4666 
L 1259 531 
L 3531 531 
L 3531 0 
L 628 0 
L 628 4666 
z
" transform="scale(0.015625)"/>
       <path id="DejaVuSans-69" d="M 603 3500 
L 1178 3500 
L 1178 0 
L 603 0 
L 603 3500 
z
M 603 4863 
L 1178 4863 
L 1178 4134 
L 603 4134 
L 603 4863 
z
" transform="scale(0.015625)"/>
       <path id="DejaVuSans-6b" d="M 581 4863 
L 1159 4863 
L 1159 1991 
L 2875 3500 
L 3609 3500 
L 1753 1863 
L 3688 0 
L 2938 0 
L 1159 1709 
L 1159 0 
L 581 0 
L 581 4863 
z
" transform="scale(0.015625)"/>
       <path id="DejaVuSans-65" d="M 3597 1894 
L 3597 1613 
L 953 1613 
Q 991 1019 1311 708 
Q 1631 397 2203 397 
Q 2534 397 2845 478 
Q 3156 559 3463 722 
L 3463 178 
Q 3153 47 2828 -22 
Q 2503 -91 2169 -91 
Q 1331 -91 842 396 
Q 353 884 353 1716 
Q 353 2575 817 3079 
Q 1281 3584 2069 3584 
Q 2775 3584 3186 3129 
Q 3597 2675 3597 1894 
z
M 3022 2063 
Q 3016 2534 2758 2815 
Q 2500 3097 2075 3097 
Q 1594 3097 1305 2825 
Q 1016 2553 972 2059 
L 3022 2063 
z
" transform="scale(0.015625)"/>
       <path id="DejaVuSans-6c" d="M 603 4863 
L 1178 4863 
L 1178 0 
L 603 0 
L 603 4863 
z
" transform="scale(0.015625)"/>
       <path id="DejaVuSans-68" d="M 3513 2113 
L 3513 0 
L 2938 0 
L 2938 2094 
Q 2938 2591 2744 2837 
Q 2550 3084 2163 3084 
Q 1697 3084 1428 2787 
Q 1159 2491 1159 1978 
L 1159 0 
L 581 0 
L 581 4863 
L 1159 4863 
L 1159 2956 
Q 1366 3272 1645 3428 
Q 1925 3584 2291 3584 
Q 2894 3584 3203 3211 
Q 3513 2838 3513 2113 
z
" transform="scale(0.015625)"/>
       <path id="DejaVuSans-6f" d="M 1959 3097 
Q 1497 3097 1228 2736 
Q 959 2375 959 1747 
Q 959 1119 1226 758 
Q 1494 397 1959 397 
Q 2419 397 2687 759 
Q 2956 1122 2956 1747 
Q 2956 2369 2687 2733 
Q 2419 3097 1959 3097 
z
M 1959 3584 
Q 2709 3584 3137 3096 
Q 3566 2609 3566 1747 
Q 3566 888 3137 398 
Q 2709 -91 1959 -91 
Q 1206 -91 779 398 
Q 353 888 353 1747 
Q 353 2609 779 3096 
Q 1206 3584 1959 3584 
z
" transform="scale(0.015625)"/>
       <path id="DejaVuSans-64" d="M 2906 2969 
L 2906 4863 
L 3481 4863 
L 3481 0 
L 2906 0 
L 2906 525 
Q 2725 213 2448 61 
Q 2172 -91 1784 -91 
Q 1150 -91 751 415 
Q 353 922 353 1747 
Q 353 2572 751 3078 
Q 1150 3584 1784 3584 
Q 2172 3584 2448 3432 
Q 2725 3281 2906 2969 
z
M 947 1747 
Q 947 1113 1208 752 
Q 1469 391 1925 391 
Q 2381 391 2643 752 
Q 2906 1113 2906 1747 
Q 2906 2381 2643 2742 
Q 2381 3103 1925 3103 
Q 1469 3103 1208 2742 
Q 947 2381 947 1747 
z
" transform="scale(0.015625)"/>
      </defs>
      <use xlink:href="#DejaVuSans-4c"/>
      <use xlink:href="#DejaVuSans-69" x="55.712891"/>
      <use xlink:href="#DejaVuSans-6b" x="83.496094"/>
      <use xlink:href="#DejaVuSans-65" x="137.78125"/>
      <use xlink:href="#DejaVuSans-6c" x="199.304688"/>
      <use xlink:href="#DejaVuSans-69" x="227.087891"/>
      <use xlink:href="#DejaVuSans-68" x="254.871094"/>
      <use xlink:href="#DejaVuSans-6f" x="318.25"/>
      <use xlink:href="#DejaVuSans-6f" x="379.431641"/>
      <use xlink:href="#DejaVuSans-64" x="440.613281"/>
     </g>
    </g>
    <g id="text_16">
     <!-- 1e−7 -->
     <g transform="translate(45.800625 25.396875) scale(0.1 -0.1)">
      <use xlink:href="#DejaVuSans-31"/>
      <use xlink:href="#DejaVuSans-65" x="63.623047"/>
      <use xlink:href="#DejaVuSans-2212" x="125.146484"/>
      <use xlink:href="#DejaVuSans-37" x="208.935547"/>
     </g>
    </g>
   </g>
   <g id="line2d_14">
    <path d="M 72.18608 496.009602 
L 259.710331 495.908023 
L 264.464467 495.693935 
L 267.633891 495.367429 
L 270.275078 494.881021 
L 272.388027 494.269828 
L 273.972739 493.628224 
L 275.557451 492.779684 
L 277.142163 491.668676 
L 278.726875 490.22863 
L 280.311587 488.380965 
L 281.896299 486.034423 
L 283.481011 483.084855 
L 285.065723 479.415603 
L 286.650435 474.898656 
L 288.235147 469.396717 
L 289.819859 462.766321 
L 291.404571 454.862105 
L 292.989283 445.542239 
L 294.573995 434.675017 
L 296.158707 422.146441 
L 297.743419 407.8686 
L 299.328131 391.788487 
L 301.44108 367.536131 
L 303.554029 340.194618 
L 305.666979 310.08237 
L 308.308165 269.373379 
L 316.759963 135.982858 
L 318.872912 107.920744 
L 320.457624 89.80573 
L 322.042336 74.716276 
L 323.09881 66.534434 
L 324.155285 59.969892 
L 325.21176 55.101042 
L 325.739997 53.321638 
L 326.268234 51.986543 
L 326.796472 51.099813 
L 327.324709 50.664148 
L 327.852946 50.680873 
L 328.381184 51.14994 
L 328.909421 52.069917 
L 329.437658 53.438006 
L 329.965896 55.250052 
L 331.02237 60.182736 
L 332.078845 66.808557 
L 333.13532 75.048422 
L 334.191794 84.805129 
L 335.776506 102.032301 
L 337.361218 121.974632 
L 339.474168 151.933651 
L 342.115354 193.03861 
L 349.510677 310.661054 
L 352.151864 347.824203 
L 354.264813 374.359166 
L 356.377762 397.753407 
L 357.962474 413.184835 
L 359.547186 426.828394 
L 361.131898 438.75061 
L 362.71661 449.049732 
L 364.301322 457.847023 
L 365.886034 465.278638 
L 367.470746 471.48837 
L 369.055458 476.621468 
L 370.64017 480.819615 
L 372.224882 484.217088 
L 373.809594 486.93802 
L 375.394306 489.094679 
L 376.979018 490.786611 
L 378.56373 492.100484 
L 380.148442 493.110483 
L 381.733154 493.879106 
L 383.846103 494.616698 
L 385.959053 495.113619 
L 388.600239 495.505124 
L 392.2979 495.793299 
L 397.580274 495.950426 
L 409.201495 496.007212 
L 580.878627 496.009602 
L 599.89517 496.009602 
L 599.89517 496.009602 
" clip-path="url(#p676bc79921)" style="fill: none; stroke: #ff0000; stroke-width: 1.5; stroke-linecap: square"/>
   </g>
   <g id="line2d_15">
    <path d="M 327.324709 518.276875 
L 327.324709 28.396875 
" clip-path="url(#p676bc79921)" style="fill: none; stroke-dasharray: 5.55,2.4; stroke-dashoffset: 0; stroke: #008000; stroke-width: 1.5"/>
   </g>
   <g id="patch_3">
    <path d="M 45.800625 518.276875 
L 45.800625 28.396875 
" style="fill: none; stroke: #000000; stroke-width: 0.8; stroke-linejoin: miter; stroke-linecap: square"/>
   </g>
   <g id="patch_4">
    <path d="M 626.280625 518.276875 
L 626.280625 28.396875 
" style="fill: none; stroke: #000000; stroke-width: 0.8; stroke-linejoin: miter; stroke-linecap: square"/>
   </g>
   <g id="patch_5">
    <path d="M 45.800625 518.276875 
L 626.280625 518.276875 
" style="fill: none; stroke: #000000; stroke-width: 0.8; stroke-linejoin: miter; stroke-linecap: square"/>
   </g>
   <g id="patch_6">
    <path d="M 45.800625 28.396875 
L 626.280625 28.396875 
" style="fill: none; stroke: #000000; stroke-width: 0.8; stroke-linejoin: miter; stroke-linecap: square"/>
   </g>
   <g id="text_17">
    <g id="patch_7">
     <path d="M 99.848625 448.794875 
L 268.768625 448.794875 
L 268.768625 425.309875 
L 99.848625 425.309875 
z
" style="fill: #ffffff; opacity: 0.8; stroke: #000000; stroke-linejoin: miter"/>
    </g>
    <!-- 95% CI: [1.49, 2.51] -->
    <g transform="translate(103.848625 441.467375) scale(0.16 -0.16)">
     <defs>
      <path id="DejaVuSans-39" d="M 703 97 
L 703 672 
Q 941 559 1184 500 
Q 1428 441 1663 441 
Q 2288 441 2617 861 
Q 2947 1281 2994 2138 
Q 2813 1869 2534 1725 
Q 2256 1581 1919 1581 
Q 1219 1581 811 2004 
Q 403 2428 403 3163 
Q 403 3881 828 4315 
Q 1253 4750 1959 4750 
Q 2769 4750 3195 4129 
Q 3622 3509 3622 2328 
Q 3622 1225 3098 567 
Q 2575 -91 1691 -91 
Q 1453 -91 1209 -44 
Q 966 3 703 97 
z
M 1959 2075 
Q 2384 2075 2632 2365 
Q 2881 2656 2881 3163 
Q 2881 3666 2632 3958 
Q 2384 4250 1959 4250 
Q 1534 4250 1286 3958 
Q 1038 3666 1038 3163 
Q 1038 2656 1286 2365 
Q 1534 2075 1959 2075 
z
" transform="scale(0.015625)"/>
      <path id="DejaVuSans-25" d="M 4653 2053 
Q 4381 2053 4226 1822 
Q 4072 1591 4072 1178 
Q 4072 772 4226 539 
Q 4381 306 4653 306 
Q 4919 306 5073 539 
Q 5228 772 5228 1178 
Q 5228 1588 5073 1820 
Q 4919 2053 4653 2053 
z
M 4653 2450 
Q 5147 2450 5437 2106 
Q 5728 1763 5728 1178 
Q 5728 594 5436 251 
Q 5144 -91 4653 -91 
Q 4153 -91 3862 251 
Q 3572 594 3572 1178 
Q 3572 1766 3864 2108 
Q 4156 2450 4653 2450 
z
M 1428 4353 
Q 1159 4353 1004 4120 
Q 850 3888 850 3481 
Q 850 3069 1003 2837 
Q 1156 2606 1428 2606 
Q 1700 2606 1854 2837 
Q 2009 3069 2009 3481 
Q 2009 3884 1853 4118 
Q 1697 4353 1428 4353 
z
M 4250 4750 
L 4750 4750 
L 1831 -91 
L 1331 -91 
L 4250 4750 
z
M 1428 4750 
Q 1922 4750 2215 4408 
Q 2509 4066 2509 3481 
Q 2509 2891 2217 2550 
Q 1925 2209 1428 2209 
Q 931 2209 642 2551 
Q 353 2894 353 3481 
Q 353 4063 643 4406 
Q 934 4750 1428 4750 
z
" transform="scale(0.015625)"/>
      <path id="DejaVuSans-20" transform="scale(0.015625)"/>
      <path id="DejaVuSans-43" d="M 4122 4306 
L 4122 3641 
Q 3803 3938 3442 4084 
Q 3081 4231 2675 4231 
Q 1875 4231 1450 3742 
Q 1025 3253 1025 2328 
Q 1025 1406 1450 917 
Q 1875 428 2675 428 
Q 3081 428 3442 575 
Q 3803 722 4122 1019 
L 4122 359 
Q 3791 134 3420 21 
Q 3050 -91 2638 -91 
Q 1578 -91 968 557 
Q 359 1206 359 2328 
Q 359 3453 968 4101 
Q 1578 4750 2638 4750 
Q 3056 4750 3426 4639 
Q 3797 4528 4122 4306 
z
" transform="scale(0.015625)"/>
      <path id="DejaVuSans-49" d="M 628 4666 
L 1259 4666 
L 1259 0 
L 628 0 
L 628 4666 
z
" transform="scale(0.015625)"/>
      <path id="DejaVuSans-3a" d="M 750 794 
L 1409 794 
L 1409 0 
L 750 0 
L 750 794 
z
M 750 3309 
L 1409 3309 
L 1409 2516 
L 750 2516 
L 750 3309 
z
" transform="scale(0.015625)"/>
      <path id="DejaVuSans-5b" d="M 550 4863 
L 1875 4863 
L 1875 4416 
L 1125 4416 
L 1125 -397 
L 1875 -397 
L 1875 -844 
L 550 -844 
L 550 4863 
z
" transform="scale(0.015625)"/>
      <path id="DejaVuSans-2e" d="M 684 794 
L 1344 794 
L 1344 0 
L 684 0 
L 684 794 
z
" transform="scale(0.015625)"/>
      <path id="DejaVuSans-2c" d="M 750 794 
L 1409 794 
L 1409 256 
L 897 -744 
L 494 -744 
L 750 256 
L 750 794 
z
" transform="scale(0.015625)"/>
      <path id="DejaVuSans-5d" d="M 1947 4863 
L 1947 -844 
L 622 -844 
L 622 -397 
L 1369 -397 
L 1369 4416 
L 622 4416 
L 622 4863 
L 1947 4863 
z
" transform="scale(0.015625)"/>
     </defs>
     <use xlink:href="#DejaVuSans-39"/>
     <use xlink:href="#DejaVuSans-35" x="63.623047"/>
     <use xlink:href="#DejaVuSans-25" x="127.246094"/>
     <use xlink:href="#DejaVuSans-20" x="222.265625"/>
     <use xlink:href="#DejaVuSans-43" x="254.052734"/>
     <use xlink:href="#DejaVuSans-49" x="323.876953"/>
     <use xlink:href="#DejaVuSans-3a" x="353.369141"/>
     <use xlink:href="#DejaVuSans-20" x="387.060547"/>
     <use xlink:href="#DejaVuSans-5b" x="418.847656"/>
     <use xlink:href="#DejaVuSans-31" x="457.861328"/>
     <use xlink:href="#DejaVuSans-2e" x="521.484375"/>
     <use xlink:href="#DejaVuSans-34" x="553.271484"/>
     <use xlink:href="#DejaVuSans-39" x="616.894531"/>
     <use xlink:href="#DejaVuSans-2c" x="680.517578"/>
     <use xlink:href="#DejaVuSans-20" x="712.304688"/>
     <use xlink:href="#DejaVuSans-32" x="744.091797"/>
     <use xlink:href="#DejaVuSans-2e" x="807.714844"/>
     <use xlink:href="#DejaVuSans-35" x="839.501953"/>
     <use xlink:href="#DejaVuSans-31" x="903.125"/>
     <use xlink:href="#DejaVuSans-5d" x="966.748047"/>
    </g>
   </g>
   <g id="text_18">
    <g id="patch_8">
     <path d="M 323.324709 62.406648 
L 410.254709 62.406648 
L 410.254709 38.921648 
L 323.324709 38.921648 
z
" style="fill: #ffffff; opacity: 0.8; stroke: #000000; stroke-linejoin: miter"/>
    </g>
    <!-- MLE: 1.83 -->
    <g transform="translate(327.324709 55.079148) scale(0.16 -0.16)">
     <defs>
      <path id="DejaVuSans-45" d="M 628 4666 
L 3578 4666 
L 3578 4134 
L 1259 4134 
L 1259 2753 
L 3481 2753 
L 3481 2222 
L 1259 2222 
L 1259 531 
L 3634 531 
L 3634 0 
L 628 0 
L 628 4666 
z
" transform="scale(0.015625)"/>
      <path id="DejaVuSans-38" d="M 2034 2216 
Q 1584 2216 1326 1975 
Q 1069 1734 1069 1313 
Q 1069 891 1326 650 
Q 1584 409 2034 409 
Q 2484 409 2743 651 
Q 3003 894 3003 1313 
Q 3003 1734 2745 1975 
Q 2488 2216 2034 2216 
z
M 1403 2484 
Q 997 2584 770 2862 
Q 544 3141 544 3541 
Q 544 4100 942 4425 
Q 1341 4750 2034 4750 
Q 2731 4750 3128 4425 
Q 3525 4100 3525 3541 
Q 3525 3141 3298 2862 
Q 3072 2584 2669 2484 
Q 3125 2378 3379 2068 
Q 3634 1759 3634 1313 
Q 3634 634 3220 271 
Q 2806 -91 2034 -91 
Q 1263 -91 848 271 
Q 434 634 434 1313 
Q 434 1759 690 2068 
Q 947 2378 1403 2484 
z
M 1172 3481 
Q 1172 3119 1398 2916 
Q 1625 2713 2034 2713 
Q 2441 2713 2670 2916 
Q 2900 3119 2900 3481 
Q 2900 3844 2670 4047 
Q 2441 4250 2034 4250 
Q 1625 4250 1398 4047 
Q 1172 3844 1172 3481 
z
" transform="scale(0.015625)"/>
     </defs>
     <use xlink:href="#DejaVuSans-4d"/>
     <use xlink:href="#DejaVuSans-4c" x="86.279297"/>
     <use xlink:href="#DejaVuSans-45" x="141.992188"/>
     <use xlink:href="#DejaVuSans-3a" x="205.175781"/>
     <use xlink:href="#DejaVuSans-20" x="238.867188"/>
     <use xlink:href="#DejaVuSans-31" x="270.654297"/>
     <use xlink:href="#DejaVuSans-2e" x="334.277344"/>
     <use xlink:href="#DejaVuSans-38" x="366.064453"/>
     <use xlink:href="#DejaVuSans-33" x="429.6875"/>
    </g>
   </g>
   <g id="text_19">
    <!-- Sample Size N=10 -->
    <g transform="translate(243.073438 22.396875) scale(0.2 -0.2)">
     <defs>
      <path id="DejaVuSans-53" d="M 3425 4513 
L 3425 3897 
Q 3066 4069 2747 4153 
Q 2428 4238 2131 4238 
Q 1616 4238 1336 4038 
Q 1056 3838 1056 3469 
Q 1056 3159 1242 3001 
Q 1428 2844 1947 2747 
L 2328 2669 
Q 3034 2534 3370 2195 
Q 3706 1856 3706 1288 
Q 3706 609 3251 259 
Q 2797 -91 1919 -91 
Q 1588 -91 1214 -16 
Q 841 59 441 206 
L 441 856 
Q 825 641 1194 531 
Q 1563 422 1919 422 
Q 2459 422 2753 634 
Q 3047 847 3047 1241 
Q 3047 1584 2836 1778 
Q 2625 1972 2144 2069 
L 1759 2144 
Q 1053 2284 737 2584 
Q 422 2884 422 3419 
Q 422 4038 858 4394 
Q 1294 4750 2059 4750 
Q 2388 4750 2728 4690 
Q 3069 4631 3425 4513 
z
" transform="scale(0.015625)"/>
      <path id="DejaVuSans-61" d="M 2194 1759 
Q 1497 1759 1228 1600 
Q 959 1441 959 1056 
Q 959 750 1161 570 
Q 1363 391 1709 391 
Q 2188 391 2477 730 
Q 2766 1069 2766 1631 
L 2766 1759 
L 2194 1759 
z
M 3341 1997 
L 3341 0 
L 2766 0 
L 2766 531 
Q 2569 213 2275 61 
Q 1981 -91 1556 -91 
Q 1019 -91 701 211 
Q 384 513 384 1019 
Q 384 1609 779 1909 
Q 1175 2209 1959 2209 
L 2766 2209 
L 2766 2266 
Q 2766 2663 2505 2880 
Q 2244 3097 1772 3097 
Q 1472 3097 1187 3025 
Q 903 2953 641 2809 
L 641 3341 
Q 956 3463 1253 3523 
Q 1550 3584 1831 3584 
Q 2591 3584 2966 3190 
Q 3341 2797 3341 1997 
z
" transform="scale(0.015625)"/>
      <path id="DejaVuSans-6d" d="M 3328 2828 
Q 3544 3216 3844 3400 
Q 4144 3584 4550 3584 
Q 5097 3584 5394 3201 
Q 5691 2819 5691 2113 
L 5691 0 
L 5113 0 
L 5113 2094 
Q 5113 2597 4934 2840 
Q 4756 3084 4391 3084 
Q 3944 3084 3684 2787 
Q 3425 2491 3425 1978 
L 3425 0 
L 2847 0 
L 2847 2094 
Q 2847 2600 2669 2842 
Q 2491 3084 2119 3084 
Q 1678 3084 1418 2786 
Q 1159 2488 1159 1978 
L 1159 0 
L 581 0 
L 581 3500 
L 1159 3500 
L 1159 2956 
Q 1356 3278 1631 3431 
Q 1906 3584 2284 3584 
Q 2666 3584 2933 3390 
Q 3200 3197 3328 2828 
z
" transform="scale(0.015625)"/>
      <path id="DejaVuSans-70" d="M 1159 525 
L 1159 -1331 
L 581 -1331 
L 581 3500 
L 1159 3500 
L 1159 2969 
Q 1341 3281 1617 3432 
Q 1894 3584 2278 3584 
Q 2916 3584 3314 3078 
Q 3713 2572 3713 1747 
Q 3713 922 3314 415 
Q 2916 -91 2278 -91 
Q 1894 -91 1617 61 
Q 1341 213 1159 525 
z
M 3116 1747 
Q 3116 2381 2855 2742 
Q 2594 3103 2138 3103 
Q 1681 3103 1420 2742 
Q 1159 2381 1159 1747 
Q 1159 1113 1420 752 
Q 1681 391 2138 391 
Q 2594 391 2855 752 
Q 3116 1113 3116 1747 
z
" transform="scale(0.015625)"/>
      <path id="DejaVuSans-7a" d="M 353 3500 
L 3084 3500 
L 3084 2975 
L 922 459 
L 3084 459 
L 3084 0 
L 275 0 
L 275 525 
L 2438 3041 
L 353 3041 
L 353 3500 
z
" transform="scale(0.015625)"/>
      <path id="DejaVuSans-4e" d="M 628 4666 
L 1478 4666 
L 3547 763 
L 3547 4666 
L 4159 4666 
L 4159 0 
L 3309 0 
L 1241 3903 
L 1241 0 
L 628 0 
L 628 4666 
z
" transform="scale(0.015625)"/>
      <path id="DejaVuSans-3d" d="M 678 2906 
L 4684 2906 
L 4684 2381 
L 678 2381 
L 678 2906 
z
M 678 1631 
L 4684 1631 
L 4684 1100 
L 678 1100 
L 678 1631 
z
" transform="scale(0.015625)"/>
     </defs>
     <use xlink:href="#DejaVuSans-53"/>
     <use xlink:href="#DejaVuSans-61" x="63.476562"/>
     <use xlink:href="#DejaVuSans-6d" x="124.755859"/>
     <use xlink:href="#DejaVuSans-70" x="222.167969"/>
     <use xlink:href="#DejaVuSans-6c" x="285.644531"/>
     <use xlink:href="#DejaVuSans-65" x="313.427734"/>
     <use xlink:href="#DejaVuSans-20" x="374.951172"/>
     <use xlink:href="#DejaVuSans-53" x="406.738281"/>
     <use xlink:href="#DejaVuSans-69" x="470.214844"/>
     <use xlink:href="#DejaVuSans-7a" x="497.998047"/>
     <use xlink:href="#DejaVuSans-65" x="550.488281"/>
     <use xlink:href="#DejaVuSans-20" x="612.011719"/>
     <use xlink:href="#DejaVuSans-4e" x="643.798828"/>
     <use xlink:href="#DejaVuSans-3d" x="718.603516"/>
     <use xlink:href="#DejaVuSans-31" x="802.392578"/>
     <use xlink:href="#DejaVuSans-30" x="866.015625"/>
    </g>
   </g>
   <g id="legend_1">
    <g id="patch_9">
     <path d="M 55.600625 80.695625 
L 170.975937 80.695625 
Q 173.775937 80.695625 173.775937 77.895625 
L 173.775937 38.196875 
Q 173.775937 35.396875 170.975937 35.396875 
L 55.600625 35.396875 
Q 52.800625 35.396875 52.800625 38.196875 
L 52.800625 77.895625 
Q 52.800625 80.695625 55.600625 80.695625 
z
" style="fill: #ffffff; opacity: 0.8; stroke: #cccccc; stroke-linejoin: miter"/>
    </g>
    <g id="line2d_16">
     <path d="M 58.400625 46.734687 
L 72.400625 46.734687 
L 86.400625 46.734687 
" style="fill: none; stroke: #ff0000; stroke-width: 1.5; stroke-linecap: square"/>
    </g>
    <g id="text_20">
     <!-- Likelihood -->
     <g transform="translate(97.600625 51.634687) scale(0.14 -0.14)">
      <use xlink:href="#DejaVuSans-4c"/>
      <use xlink:href="#DejaVuSans-69" x="55.712891"/>
      <use xlink:href="#DejaVuSans-6b" x="83.496094"/>
      <use xlink:href="#DejaVuSans-65" x="137.78125"/>
      <use xlink:href="#DejaVuSans-6c" x="199.304688"/>
      <use xlink:href="#DejaVuSans-69" x="227.087891"/>
      <use xlink:href="#DejaVuSans-68" x="254.871094"/>
      <use xlink:href="#DejaVuSans-6f" x="318.25"/>
      <use xlink:href="#DejaVuSans-6f" x="379.431641"/>
      <use xlink:href="#DejaVuSans-64" x="440.613281"/>
     </g>
    </g>
    <g id="patch_10">
     <path d="M 58.400625 72.184062 
L 86.400625 72.184062 
L 86.400625 62.384062 
L 58.400625 62.384062 
z
" style="fill: #808080; fill-opacity: 0.3; stroke: #808080; stroke-opacity: 0.3; stroke-linejoin: miter"/>
    </g>
    <g id="text_21">
     <!-- 95% CI -->
     <g transform="translate(97.600625 72.184062) scale(0.14 -0.14)">
      <use xlink:href="#DejaVuSans-39"/>
      <use xlink:href="#DejaVuSans-35" x="63.623047"/>
      <use xlink:href="#DejaVuSans-25" x="127.246094"/>
      <use xlink:href="#DejaVuSans-20" x="222.265625"/>
      <use xlink:href="#DejaVuSans-43" x="254.052734"/>
      <use xlink:href="#DejaVuSans-49" x="323.876953"/>
     </g>
    </g>
   </g>
  </g>
  <g id="axes_2">
   <g id="patch_11">
    <path d="M 701.180625 518.276875 
L 1281.660625 518.276875 
L 1281.660625 28.396875 
L 701.180625 28.396875 
z
" style="fill: #ffffff"/>
   </g>
   <g id="PolyCollection_2">
    <defs>
     <path id="mc044093159" d="M 981.648234 -363.943116 
L 981.648234 -73.372898 
L 982.176472 -73.372898 
L 982.704709 -73.372898 
L 983.232946 -73.372898 
L 983.761184 -73.372898 
L 984.289421 -73.372898 
L 984.817658 -73.372898 
L 985.345896 -73.372898 
L 985.874133 -73.372898 
L 986.40237 -73.372898 
L 986.930608 -73.372898 
L 987.458845 -73.372898 
L 987.987082 -73.372898 
L 988.51532 -73.372898 
L 989.043557 -73.372898 
L 989.571794 -73.372898 
L 990.100032 -73.372898 
L 990.628269 -73.372898 
L 991.156506 -73.372898 
L 991.684744 -73.372898 
L 992.212981 -73.372898 
L 992.741218 -73.372898 
L 993.269456 -73.372898 
L 993.797693 -73.372898 
L 994.32593 -73.372898 
L 994.854168 -73.372898 
L 995.382405 -73.372898 
L 995.910642 -73.372898 
L 996.43888 -73.372898 
L 996.967117 -73.372898 
L 997.495354 -73.372898 
L 998.023592 -73.372898 
L 998.551829 -73.372898 
L 999.080066 -73.372898 
L 999.608304 -73.372898 
L 1000.136541 -73.372898 
L 1000.664778 -73.372898 
L 1001.193016 -73.372898 
L 1001.193016 -79.185687 
L 1001.193016 -79.185687 
L 1000.664778 -81.240205 
L 1000.136541 -83.905028 
L 999.608304 -87.319065 
L 999.080066 -91.638839 
L 998.551829 -97.036332 
L 998.023592 -103.695191 
L 997.495354 -111.805063 
L 996.967117 -121.553942 
L 996.43888 -133.118522 
L 995.910642 -146.652742 
L 995.382405 -162.274895 
L 994.854168 -180.053887 
L 994.32593 -199.995459 
L 993.797693 -222.029327 
L 993.269456 -245.998355 
L 992.741218 -271.650897 
L 992.212981 -298.637398 
L 991.684744 -326.512169 
L 991.156506 -354.740984 
L 990.628269 -382.714756 
L 990.100032 -409.769101 
L 989.571794 -435.209105 
L 989.043557 -458.338124 
L 988.51532 -478.489016 
L 987.987082 -495.05589 
L 987.458845 -507.524282 
L 986.930608 -515.497657 
L 986.40237 -518.718352 
L 985.874133 -517.081403 
L 985.345896 -510.640223 
L 984.817658 -499.603708 
L 984.289421 -484.324989 
L 983.761184 -465.282669 
L 983.232946 -443.055941 
L 982.704709 -418.295387 
L 982.176472 -391.691512 
L 981.648234 -363.943116 
z
" style="stroke: #808080; stroke-opacity: 0.3"/>
    </defs>
    <g clip-path="url(#p93dd73e337)">
     <use xlink:href="#mc044093159" x="0" y="569.3825" style="fill: #808080; fill-opacity: 0.3; stroke: #808080; stroke-opacity: 0.3"/>
    </g>
   </g>
   <g id="matplotlib.axis_3">
    <g id="xtick_6">
     <g id="line2d_17">
      <g>
       <use xlink:href="#m4250674514" x="780.336989" y="518.276875" style="stroke: #000000; stroke-width: 0.8"/>
      </g>
     </g>
     <g id="text_22">
      <!-- −2 -->
      <g transform="translate(768.543239 537.434375) scale(0.16 -0.16)">
       <use xlink:href="#DejaVuSans-2212"/>
       <use xlink:href="#DejaVuSans-32" x="83.789062"/>
      </g>
     </g>
    </g>
    <g id="xtick_7">
     <g id="line2d_18">
      <g>
       <use xlink:href="#m4250674514" x="885.878807" y="518.276875" style="stroke: #000000; stroke-width: 0.8"/>
      </g>
     </g>
     <g id="text_23">
      <!-- 0 -->
      <g transform="translate(880.788807 537.434375) scale(0.16 -0.16)">
       <use xlink:href="#DejaVuSans-30"/>
      </g>
     </g>
    </g>
    <g id="xtick_8">
     <g id="line2d_19">
      <g>
       <use xlink:href="#m4250674514" x="991.420625" y="518.276875" style="stroke: #000000; stroke-width: 0.8"/>
      </g>
     </g>
     <g id="text_24">
      <!-- 2 -->
      <g transform="translate(986.330625 537.434375) scale(0.16 -0.16)">
       <use xlink:href="#DejaVuSans-32"/>
      </g>
     </g>
    </g>
    <g id="xtick_9">
     <g id="line2d_20">
      <g>
       <use xlink:href="#m4250674514" x="1096.962443" y="518.276875" style="stroke: #000000; stroke-width: 0.8"/>
      </g>
     </g>
     <g id="text_25">
      <!-- 4 -->
      <g transform="translate(1091.872443 537.434375) scale(0.16 -0.16)">
       <use xlink:href="#DejaVuSans-34"/>
      </g>
     </g>
    </g>
    <g id="xtick_10">
     <g id="line2d_21">
      <g>
       <use xlink:href="#m4250674514" x="1202.504261" y="518.276875" style="stroke: #000000; stroke-width: 0.8"/>
      </g>
     </g>
     <g id="text_26">
      <!-- 6 -->
      <g transform="translate(1197.414261 537.434375) scale(0.16 -0.16)">
       <use xlink:href="#DejaVuSans-36"/>
      </g>
     </g>
    </g>
    <g id="text_27">
     <!-- Mu -->
     <g transform="translate(977.951562 558.439062) scale(0.18 -0.18)">
      <use xlink:href="#DejaVuSans-4d"/>
      <use xlink:href="#DejaVuSans-75" x="86.279297"/>
     </g>
    </g>
   </g>
   <g id="matplotlib.axis_4">
    <g id="ytick_9">
     <g id="line2d_22">
      <g>
       <use xlink:href="#mdc8d9d14b5" x="701.180625" y="496.009602" style="stroke: #000000; stroke-width: 0.8"/>
      </g>
     </g>
     <g id="text_28">
      <!-- 0.00 -->
      <g transform="translate(658.555625 502.088352) scale(0.16 -0.16)">
       <use xlink:href="#DejaVuSans-30"/>
       <use xlink:href="#DejaVuSans-2e" x="63.623047"/>
       <use xlink:href="#DejaVuSans-30" x="95.410156"/>
       <use xlink:href="#DejaVuSans-30" x="159.033203"/>
      </g>
     </g>
    </g>
    <g id="ytick_10">
     <g id="line2d_23">
      <g>
       <use xlink:href="#mdc8d9d14b5" x="701.180625" y="438.235974" style="stroke: #000000; stroke-width: 0.8"/>
      </g>
     </g>
     <g id="text_29">
      <!-- 0.25 -->
      <g transform="translate(658.555625 444.314724) scale(0.16 -0.16)">
       <use xlink:href="#DejaVuSans-30"/>
       <use xlink:href="#DejaVuSans-2e" x="63.623047"/>
       <use xlink:href="#DejaVuSans-32" x="95.410156"/>
       <use xlink:href="#DejaVuSans-35" x="159.033203"/>
      </g>
     </g>
    </g>
    <g id="ytick_11">
     <g id="line2d_24">
      <g>
       <use xlink:href="#mdc8d9d14b5" x="701.180625" y="380.462345" style="stroke: #000000; stroke-width: 0.8"/>
      </g>
     </g>
     <g id="text_30">
      <!-- 0.50 -->
      <g transform="translate(658.555625 386.541095) scale(0.16 -0.16)">
       <use xlink:href="#DejaVuSans-30"/>
       <use xlink:href="#DejaVuSans-2e" x="63.623047"/>
       <use xlink:href="#DejaVuSans-35" x="95.410156"/>
       <use xlink:href="#DejaVuSans-30" x="159.033203"/>
      </g>
     </g>
    </g>
    <g id="ytick_12">
     <g id="line2d_25">
      <g>
       <use xlink:href="#mdc8d9d14b5" x="701.180625" y="322.688717" style="stroke: #000000; stroke-width: 0.8"/>
      </g>
     </g>
     <g id="text_31">
      <!-- 0.75 -->
      <g transform="translate(658.555625 328.767467) scale(0.16 -0.16)">
       <use xlink:href="#DejaVuSans-30"/>
       <use xlink:href="#DejaVuSans-2e" x="63.623047"/>
       <use xlink:href="#DejaVuSans-37" x="95.410156"/>
       <use xlink:href="#DejaVuSans-35" x="159.033203"/>
      </g>
     </g>
    </g>
    <g id="ytick_13">
     <g id="line2d_26">
      <g>
       <use xlink:href="#mdc8d9d14b5" x="701.180625" y="264.915088" style="stroke: #000000; stroke-width: 0.8"/>
      </g>
     </g>
     <g id="text_32">
      <!-- 1.00 -->
      <g transform="translate(658.555625 270.993838) scale(0.16 -0.16)">
       <use xlink:href="#DejaVuSans-31"/>
       <use xlink:href="#DejaVuSans-2e" x="63.623047"/>
       <use xlink:href="#DejaVuSans-30" x="95.410156"/>
       <use xlink:href="#DejaVuSans-30" x="159.033203"/>
      </g>
     </g>
    </g>
    <g id="ytick_14">
     <g id="line2d_27">
      <g>
       <use xlink:href="#mdc8d9d14b5" x="701.180625" y="207.14146" style="stroke: #000000; stroke-width: 0.8"/>
      </g>
     </g>
     <g id="text_33">
      <!-- 1.25 -->
      <g transform="translate(658.555625 213.22021) scale(0.16 -0.16)">
       <use xlink:href="#DejaVuSans-31"/>
       <use xlink:href="#DejaVuSans-2e" x="63.623047"/>
       <use xlink:href="#DejaVuSans-32" x="95.410156"/>
       <use xlink:href="#DejaVuSans-35" x="159.033203"/>
      </g>
     </g>
    </g>
    <g id="ytick_15">
     <g id="line2d_28">
      <g>
       <use xlink:href="#mdc8d9d14b5" x="701.180625" y="149.367832" style="stroke: #000000; stroke-width: 0.8"/>
      </g>
     </g>
     <g id="text_34">
      <!-- 1.50 -->
      <g transform="translate(658.555625 155.446582) scale(0.16 -0.16)">
       <use xlink:href="#DejaVuSans-31"/>
       <use xlink:href="#DejaVuSans-2e" x="63.623047"/>
       <use xlink:href="#DejaVuSans-35" x="95.410156"/>
       <use xlink:href="#DejaVuSans-30" x="159.033203"/>
      </g>
     </g>
    </g>
    <g id="ytick_16">
     <g id="line2d_29">
      <g>
       <use xlink:href="#mdc8d9d14b5" x="701.180625" y="91.594203" style="stroke: #000000; stroke-width: 0.8"/>
      </g>
     </g>
     <g id="text_35">
      <!-- 1.75 -->
      <g transform="translate(658.555625 97.672953) scale(0.16 -0.16)">
       <use xlink:href="#DejaVuSans-31"/>
       <use xlink:href="#DejaVuSans-2e" x="63.623047"/>
       <use xlink:href="#DejaVuSans-37" x="95.410156"/>
       <use xlink:href="#DejaVuSans-35" x="159.033203"/>
      </g>
     </g>
    </g>
    <g id="ytick_17">
     <g id="line2d_30">
      <g>
       <use xlink:href="#mdc8d9d14b5" x="701.180625" y="33.820575" style="stroke: #000000; stroke-width: 0.8"/>
      </g>
     </g>
     <g id="text_36">
      <!-- 2.00 -->
      <g transform="translate(658.555625 39.899325) scale(0.16 -0.16)">
       <use xlink:href="#DejaVuSans-32"/>
       <use xlink:href="#DejaVuSans-2e" x="63.623047"/>
       <use xlink:href="#DejaVuSans-30" x="95.410156"/>
       <use xlink:href="#DejaVuSans-30" x="159.033203"/>
      </g>
     </g>
    </g>
    <g id="text_37">
     <!-- Likelihood -->
     <g transform="translate(650.812187 318.706719) rotate(-90) scale(0.18 -0.18)">
      <use xlink:href="#DejaVuSans-4c"/>
      <use xlink:href="#DejaVuSans-69" x="55.712891"/>
      <use xlink:href="#DejaVuSans-6b" x="83.496094"/>
      <use xlink:href="#DejaVuSans-65" x="137.78125"/>
      <use xlink:href="#DejaVuSans-6c" x="199.304688"/>
      <use xlink:href="#DejaVuSans-69" x="227.087891"/>
      <use xlink:href="#DejaVuSans-68" x="254.871094"/>
      <use xlink:href="#DejaVuSans-6f" x="318.25"/>
      <use xlink:href="#DejaVuSans-6f" x="379.431641"/>
      <use xlink:href="#DejaVuSans-64" x="440.613281"/>
     </g>
    </g>
    <g id="text_38">
     <!-- 1e−60 -->
     <g transform="translate(701.180625 25.396875) scale(0.1 -0.1)">
      <use xlink:href="#DejaVuSans-31"/>
      <use xlink:href="#DejaVuSans-65" x="63.623047"/>
      <use xlink:href="#DejaVuSans-2212" x="125.146484"/>
      <use xlink:href="#DejaVuSans-36" x="208.935547"/>
      <use xlink:href="#DejaVuSans-30" x="272.558594"/>
     </g>
    </g>
   </g>
   <g id="line2d_31">
    <path d="M 727.56608 496.009602 
L 965.272877 495.933991 
L 966.857589 495.743497 
L 967.914064 495.426688 
L 968.970539 494.787377 
L 969.498776 494.268609 
L 970.027013 493.556636 
L 970.555251 492.59111 
L 971.083488 491.297376 
L 971.611725 489.584704 
L 972.139963 487.344875 
L 972.6682 484.451352 
L 973.196437 480.759322 
L 973.724675 476.106898 
L 974.252912 470.317781 
L 974.781149 463.205644 
L 975.837624 444.256716 
L 976.894098 417.858148 
L 977.950573 383.047251 
L 979.007048 339.721992 
L 980.59176 261.708218 
L 983.232946 126.326559 
L 984.289421 85.057511 
L 984.817658 69.778792 
L 985.345896 58.742277 
L 985.874133 52.301097 
L 986.40237 50.664148 
L 986.930608 53.884843 
L 987.458845 61.858218 
L 987.987082 74.32661 
L 988.51532 90.893484 
L 989.571794 134.173395 
L 991.156506 214.641516 
L 993.269456 323.384145 
L 994.32593 369.387041 
L 995.382405 407.107605 
L 996.43888 436.263978 
L 997.495354 457.577437 
L 998.551829 472.346168 
L 999.608304 482.063435 
L 1000.136541 485.477472 
L 1000.664778 488.142295 
L 1001.193016 490.196813 
L 1001.721253 491.761533 
L 1002.24949 492.938834 
L 1002.777728 493.814013 
L 1003.305965 494.456844 
L 1004.36244 495.258058 
L 1005.418914 495.661426 
L 1007.003626 495.90846 
L 1009.644813 495.999248 
L 1025.491933 496.009602 
L 1255.27517 496.009602 
L 1255.27517 496.009602 
" clip-path="url(#p93dd73e337)" style="fill: none; stroke: #ff0000; stroke-width: 1.5; stroke-linecap: square"/>
   </g>
   <g id="line2d_32">
    <path d="M 986.40237 518.276875 
L 986.40237 28.396875 
" clip-path="url(#p93dd73e337)" style="fill: none; stroke-dasharray: 5.55,2.4; stroke-dashoffset: 0; stroke: #008000; stroke-width: 1.5"/>
   </g>
   <g id="patch_12">
    <path d="M 701.180625 518.276875 
L 701.180625 28.396875 
" style="fill: none; stroke: #000000; stroke-width: 0.8; stroke-linejoin: miter; stroke-linecap: square"/>
   </g>
   <g id="patch_13">
    <path d="M 1281.660625 518.276875 
L 1281.660625 28.396875 
" style="fill: none; stroke: #000000; stroke-width: 0.8; stroke-linejoin: miter; stroke-linecap: square"/>
   </g>
   <g id="patch_14">
    <path d="M 701.180625 518.276875 
L 1281.660625 518.276875 
" style="fill: none; stroke: #000000; stroke-width: 0.8; stroke-linejoin: miter; stroke-linecap: square"/>
   </g>
   <g id="patch_15">
    <path d="M 701.180625 28.396875 
L 1281.660625 28.396875 
" style="fill: none; stroke: #000000; stroke-width: 0.8; stroke-linejoin: miter; stroke-linecap: square"/>
   </g>
   <g id="text_39">
    <g id="patch_16">
     <path d="M 755.228625 448.794875 
L 924.148625 448.794875 
L 924.148625 425.309875 
L 755.228625 425.309875 
z
" style="fill: #ffffff; opacity: 0.8; stroke: #000000; stroke-linejoin: miter"/>
    </g>
    <!-- 95% CI: [1.81, 2.19] -->
    <g transform="translate(759.228625 441.467375) scale(0.16 -0.16)">
     <use xlink:href="#DejaVuSans-39"/>
     <use xlink:href="#DejaVuSans-35" x="63.623047"/>
     <use xlink:href="#DejaVuSans-25" x="127.246094"/>
     <use xlink:href="#DejaVuSans-20" x="222.265625"/>
     <use xlink:href="#DejaVuSans-43" x="254.052734"/>
     <use xlink:href="#DejaVuSans-49" x="323.876953"/>
     <use xlink:href="#DejaVuSans-3a" x="353.369141"/>
     <use xlink:href="#DejaVuSans-20" x="387.060547"/>
     <use xlink:href="#DejaVuSans-5b" x="418.847656"/>
     <use xlink:href="#DejaVuSans-31" x="457.861328"/>
     <use xlink:href="#DejaVuSans-2e" x="521.484375"/>
     <use xlink:href="#DejaVuSans-38" x="553.271484"/>
     <use xlink:href="#DejaVuSans-31" x="616.894531"/>
     <use xlink:href="#DejaVuSans-2c" x="680.517578"/>
     <use xlink:href="#DejaVuSans-20" x="712.304688"/>
     <use xlink:href="#DejaVuSans-32" x="744.091797"/>
     <use xlink:href="#DejaVuSans-2e" x="807.714844"/>
     <use xlink:href="#DejaVuSans-31" x="839.501953"/>
     <use xlink:href="#DejaVuSans-39" x="903.125"/>
     <use xlink:href="#DejaVuSans-5d" x="966.748047"/>
    </g>
   </g>
   <g id="text_40">
    <g id="patch_17">
     <path d="M 982.40237 62.406648 
L 1069.33237 62.406648 
L 1069.33237 38.921648 
L 982.40237 38.921648 
z
" style="fill: #ffffff; opacity: 0.8; stroke: #000000; stroke-linejoin: miter"/>
    </g>
    <!-- MLE: 1.90 -->
    <g transform="translate(986.40237 55.079148) scale(0.16 -0.16)">
     <use xlink:href="#DejaVuSans-4d"/>
     <use xlink:href="#DejaVuSans-4c" x="86.279297"/>
     <use xlink:href="#DejaVuSans-45" x="141.992188"/>
     <use xlink:href="#DejaVuSans-3a" x="205.175781"/>
     <use xlink:href="#DejaVuSans-20" x="238.867188"/>
     <use xlink:href="#DejaVuSans-31" x="270.654297"/>
     <use xlink:href="#DejaVuSans-2e" x="334.277344"/>
     <use xlink:href="#DejaVuSans-39" x="366.064453"/>
     <use xlink:href="#DejaVuSans-30" x="429.6875"/>
    </g>
   </g>
   <g id="text_41">
    <!-- Sample Size N=100 -->
    <g transform="translate(892.090937 22.396875) scale(0.2 -0.2)">
     <use xlink:href="#DejaVuSans-53"/>
     <use xlink:href="#DejaVuSans-61" x="63.476562"/>
     <use xlink:href="#DejaVuSans-6d" x="124.755859"/>
     <use xlink:href="#DejaVuSans-70" x="222.167969"/>
     <use xlink:href="#DejaVuSans-6c" x="285.644531"/>
     <use xlink:href="#DejaVuSans-65" x="313.427734"/>
     <use xlink:href="#DejaVuSans-20" x="374.951172"/>
     <use xlink:href="#DejaVuSans-53" x="406.738281"/>
     <use xlink:href="#DejaVuSans-69" x="470.214844"/>
     <use xlink:href="#DejaVuSans-7a" x="497.998047"/>
     <use xlink:href="#DejaVuSans-65" x="550.488281"/>
     <use xlink:href="#DejaVuSans-20" x="612.011719"/>
     <use xlink:href="#DejaVuSans-4e" x="643.798828"/>
     <use xlink:href="#DejaVuSans-3d" x="718.603516"/>
     <use xlink:href="#DejaVuSans-31" x="802.392578"/>
     <use xlink:href="#DejaVuSans-30" x="866.015625"/>
     <use xlink:href="#DejaVuSans-30" x="929.638672"/>
    </g>
   </g>
   <g id="legend_2">
    <g id="patch_18">
     <path d="M 710.980625 80.695625 
L 826.355937 80.695625 
Q 829.155937 80.695625 829.155937 77.895625 
L 829.155937 38.196875 
Q 829.155937 35.396875 826.355937 35.396875 
L 710.980625 35.396875 
Q 708.180625 35.396875 708.180625 38.196875 
L 708.180625 77.895625 
Q 708.180625 80.695625 710.980625 80.695625 
z
" style="fill: #ffffff; opacity: 0.8; stroke: #cccccc; stroke-linejoin: miter"/>
    </g>
    <g id="line2d_33">
     <path d="M 713.780625 46.734687 
L 727.780625 46.734687 
L 741.780625 46.734687 
" style="fill: none; stroke: #ff0000; stroke-width: 1.5; stroke-linecap: square"/>
    </g>
    <g id="text_42">
     <!-- Likelihood -->
     <g transform="translate(752.980625 51.634687) scale(0.14 -0.14)">
      <use xlink:href="#DejaVuSans-4c"/>
      <use xlink:href="#DejaVuSans-69" x="55.712891"/>
      <use xlink:href="#DejaVuSans-6b" x="83.496094"/>
      <use xlink:href="#DejaVuSans-65" x="137.78125"/>
      <use xlink:href="#DejaVuSans-6c" x="199.304688"/>
      <use xlink:href="#DejaVuSans-69" x="227.087891"/>
      <use xlink:href="#DejaVuSans-68" x="254.871094"/>
      <use xlink:href="#DejaVuSans-6f" x="318.25"/>
      <use xlink:href="#DejaVuSans-6f" x="379.431641"/>
      <use xlink:href="#DejaVuSans-64" x="440.613281"/>
     </g>
    </g>
    <g id="patch_19">
     <path d="M 713.780625 72.184062 
L 741.780625 72.184062 
L 741.780625 62.384062 
L 713.780625 62.384062 
z
" style="fill: #808080; fill-opacity: 0.3; stroke: #808080; stroke-opacity: 0.3; stroke-linejoin: miter"/>
    </g>
    <g id="text_43">
     <!-- 95% CI -->
     <g transform="translate(752.980625 72.184062) scale(0.14 -0.14)">
      <use xlink:href="#DejaVuSans-39"/>
      <use xlink:href="#DejaVuSans-35" x="63.623047"/>
      <use xlink:href="#DejaVuSans-25" x="127.246094"/>
      <use xlink:href="#DejaVuSans-20" x="222.265625"/>
      <use xlink:href="#DejaVuSans-43" x="254.052734"/>
      <use xlink:href="#DejaVuSans-49" x="323.876953"/>
     </g>
    </g>
   </g>
  </g>
 </g>
 <defs>
  <clipPath id="p676bc79921">
   <rect x="45.800625" y="28.396875" width="580.48" height="489.88"/>
  </clipPath>
  <clipPath id="p93dd73e337">
   <rect x="701.180625" y="28.396875" width="580.48" height="489.88"/>
  </clipPath>
 </defs>
</svg>